<?xml version="1.0" encoding="UTF-8"?><svg id="Layer_2" xmlns="http://www.w3.org/2000/svg" xmlns:xlink="http://www.w3.org/1999/xlink" viewBox="0 0 235.81 135.52"><defs><linearGradient id="linear-gradient" x1="96.65" y1="51.6" x2="175.55" y2="51.6" gradientUnits="userSpaceOnUse"><stop offset="0" stop-color="#e3c97a"/><stop offset=".1" stop-color="#e3ca7c"/><stop offset=".16" stop-color="#e5ce84"/><stop offset=".2" stop-color="#e7d591"/><stop offset=".23" stop-color="#ebe0a4"/><stop offset=".27" stop-color="#f1edbd"/><stop offset=".28" stop-color="#f4f5cb"/><stop offset=".28" stop-color="#f3f4ca"/><stop offset=".31" stop-color="#dfd5a8"/><stop offset=".35" stop-color="#cebc8c"/><stop offset=".39" stop-color="#c0a876"/><stop offset=".43" stop-color="#b79966"/><stop offset=".48" stop-color="#b1915d"/><stop offset=".54" stop-color="#b08f5b"/><stop offset=".79" stop-color="#d9c077"/><stop offset="1" stop-color="#b4945e"/></linearGradient><linearGradient id="linear-gradient-2" x1="124.38" y1="40.42" x2="162.44" y2="40.42" xlink:href="#linear-gradient"/><linearGradient id="linear-gradient-3" x1="124.38" y1="77.5" x2="162.87" y2="77.5" xlink:href="#linear-gradient"/><linearGradient id="linear-gradient-4" x1="12.16" y1="110.24" x2="12.16" y2="148.59" xlink:href="#linear-gradient"/><linearGradient id="linear-gradient-5" x1="40.16" y1="110.24" x2="40.16" y2="148.59" xlink:href="#linear-gradient"/><linearGradient id="linear-gradient-6" x1="63.88" y1="110.24" x2="63.88" y2="148.59" xlink:href="#linear-gradient"/><linearGradient id="linear-gradient-7" x1="107.31" y1="110.24" x2="107.31" y2="148.59" gradientUnits="userSpaceOnUse"><stop offset="0" stop-color="#e3c97a"/><stop offset=".1" stop-color="#e3ca7c"/><stop offset=".16" stop-color="#e5ce84"/><stop offset=".2" stop-color="#e7d591"/><stop offset=".23" stop-color="#ebe0a4"/><stop offset=".27" stop-color="#f1edbd"/><stop offset=".28" stop-color="#f4f5cb"/><stop offset=".28" stop-color="#f3f4ca"/><stop offset=".32" stop-color="#dfd5a8"/><stop offset=".36" stop-color="#cebc8c"/><stop offset=".4" stop-color="#c0a876"/><stop offset=".45" stop-color="#b79966"/><stop offset=".51" stop-color="#b1915d"/><stop offset=".58" stop-color="#b08f5b"/><stop offset=".79" stop-color="#d9c077"/><stop offset="1" stop-color="#b4945e"/></linearGradient><linearGradient id="linear-gradient-8" x1="132.67" y1="110.24" x2="132.67" y2="148.59" xlink:href="#linear-gradient"/><linearGradient id="linear-gradient-9" x1="161.69" y1="110.24" x2="161.69" y2="148.59" xlink:href="#linear-gradient"/><linearGradient id="linear-gradient-10" x1="193.1" y1="110.24" x2="193.1" y2="148.59" xlink:href="#linear-gradient"/><linearGradient id="linear-gradient-11" x1="222.7" y1="110.24" x2="222.7" y2="148.59" xlink:href="#linear-gradient"/></defs><g id="Layer_1-2"><path d="m111.48,103.2l-14.83-13.97V0h36.55s13.97.43,20.64,8.17l21.71,7.74h-63.64l-.43,87.29Z" fill="url(#linear-gradient)" stroke-width="0"/><path d="m124.38,26.44h35.04s-.86,9.46-11.82,15.26c0,0,13.54,5.37,14.83,12.68h-38.05v-27.95Z" fill="url(#linear-gradient-2)" stroke-width="0"/><path d="m124.38,64.93h38.05s7.31,25.15-38.05,25.15" fill="url(#linear-gradient-3)" stroke-width="0"/><path d="m21.96,124.24c1.29-.51,2.09-1.83,2.09-3.52v-1.95c0-3.19-2.18-4.73-6.66-4.73H0v21.49h17.45c5.68,0,6.87-2.58,6.87-4.73v-3.1c0-1.71-.79-2.87-2.36-3.45Zm-17.63,1.87h13.12c1.71,0,2.54.54,2.54,1.64v2.28c0,1.42-.76,2.03-2.54,2.03H4.33v-5.95Zm15.39-4.95c0,.94-.38,1.49-2.33,1.49H4.33v-5.17h13.06c1.95,0,2.33.55,2.33,1.49v2.19Z" fill="url(#linear-gradient-4)" stroke-width="0"/><polygon points="41.75 114.03 38.65 114.03 24.37 135.52 29.21 135.52 40.21 118.61 50.99 135.44 51.04 135.52 55.94 135.52 41.8 114.1 41.75 114.03" fill="url(#linear-gradient-5)" stroke-width="0"/><polygon points="63.91 123.65 53.51 114.03 47.92 114.03 61.76 126.83 61.76 135.52 66.09 135.52 66.09 126.83 79.84 114.03 74.31 114.03 63.91 123.65" fill="url(#linear-gradient-6)" stroke-width="0"/><polygon points="96.26 135.52 100.59 135.52 100.59 126.8 117.15 126.8 117.15 123.35 100.59 123.35 100.59 117.48 118.35 117.48 118.35 114.03 96.26 114.03 96.26 135.52" fill="url(#linear-gradient-7)" stroke-width="0"/><path d="m138.34,114.03h-18.14v21.49h4.33v-9.44h10.89l4.91,9.35.05.09h4.64l-5-9.53c3.36-.4,5.14-2.19,5.14-5.19v-1.5c0-2.41-1.18-5.28-6.81-5.28Zm-13.81,3.46h13.81c1.67,0,2.48.59,2.48,1.79v1.56c0,1.2-.81,1.79-2.48,1.79h-13.81v-5.14Z" fill="url(#linear-gradient-8)" stroke-width="0"/><path d="m168.68,114.03h-13.98c-5.63,0-6.81,2.87-6.81,5.28v10.94c0,2.41,1.18,5.28,6.81,5.28h13.98c5.63,0,6.81-2.87,6.81-5.28v-10.94c0-2.41-1.18-5.28-6.81-5.28Zm2.48,5.25v11c0,1.2-.81,1.79-2.48,1.79h-13.98c-1.67,0-2.48-.59-2.48-1.79v-11c0-1.2.81-1.79,2.48-1.79h13.98c1.67,0,2.48.59,2.48,1.79Z" fill="url(#linear-gradient-9)" stroke-width="0"/><polygon points="203.45 129.59 182.64 114.06 182.6 114.03 178.92 114.03 178.92 135.52 182.74 135.52 182.74 119.21 205.1 135.52 207.27 135.52 207.27 114.03 203.45 114.03 203.45 129.59" fill="url(#linear-gradient-10)" stroke-width="0"/><polygon points="209.6 114.03 209.6 117.48 220.69 117.48 220.69 135.52 225.02 135.52 225.02 117.48 235.81 117.48 235.81 114.03 209.6 114.03" fill="url(#linear-gradient-11)" stroke-width="0"/></g></svg>