<?xml version="1.0" encoding="UTF-8"?><svg id="Layer_2" xmlns="http://www.w3.org/2000/svg" xmlns:xlink="http://www.w3.org/1999/xlink" viewBox="0 0 255.72 104.38"><defs><linearGradient id="linear-gradient" x1="31.48" y1="27.66" x2="313.72" y2="27.66" gradientUnits="userSpaceOnUse"><stop offset=".14" stop-color="#ecd17a"/><stop offset=".26" stop-color="#fcf9d0"/><stop offset=".53" stop-color="#bb9758"/><stop offset=".79" stop-color="#e4c875"/><stop offset=".93" stop-color="#bf9b5b"/></linearGradient><linearGradient id="linear-gradient-2" x1="65.8" y1="85.59" x2="316.96" y2="85.59" xlink:href="#linear-gradient"/><linearGradient id="linear-gradient-3" x1="1.83" y1="85.59" x2="252.99" y2="85.59" xlink:href="#linear-gradient"/><linearGradient id="linear-gradient-4" x1="1.83" y1="85.59" x2="252.99" y2="85.59" xlink:href="#linear-gradient"/><linearGradient id="linear-gradient-5" x1="1.83" y1="85.59" x2="252.99" y2="85.59" xlink:href="#linear-gradient"/><linearGradient id="linear-gradient-6" x1="1.83" y1="85.59" x2="252.99" y2="85.59" xlink:href="#linear-gradient"/><linearGradient id="linear-gradient-7" x1="1.83" y1="85.67" x2="252.99" y2="85.67" xlink:href="#linear-gradient"/><linearGradient id="linear-gradient-8" x1="1.83" y1="80.68" x2="252.99" y2="80.68" xlink:href="#linear-gradient"/><linearGradient id="linear-gradient-9" x1="1.83" y1="98.7" x2="252.99" y2="98.7" xlink:href="#linear-gradient"/></defs><g id="Layer_1-2"><path d="m116.77,6.16s4.79-6.16,13.14-6.16,15.6,8.08,26.01,8.08,13.82-6.43,13.82-6.43c0,0-2.19,12.18-13.96,12.18s-20.12-7.53-26.01-8.35c-5.89-.82-9.31-.27-13,.68Zm32.44,19.76c-19.16,0-30.04-11.44-45.91-11.44-19.6,0-23.35,10.89-23.35,10.89,0,0,12.87-4.75,24.82-1.46,11.95,3.29,31.12,12.78,45.08,11.41,13.96-1.37,25.19-10.77,25.92-20.9,0,0-7.39,11.5-26.55,11.5Zm-3.19,21.9c-18.07,0-23.63-10.4-37.87-10.4s-17.89,8.12-17.89,8.12c6.66-3.47,14.98-2.15,19.36-.97,6.74,1.83,19.88,10.09,34.75,10.73,17.16.74,22.27-16.43,22.27-16.43,0,0-2.56,8.94-20.62,8.94Z" fill="url(#linear-gradient)" stroke-width="0"/><path d="m179.82,84.77c.92.38,1.77.69,2.56,1.15,1.76,1.01,3.15,2.36,3.95,4.24,1.59,3.77.78,8.86-3.4,11.37-1.62.97-3.39,1.48-5.26,1.75-1.78.26-3.56.21-5.35.21-4.13,0-8.26,0-12.38.01-.35,0-.47-.08-.47-.45,0-5.71,0-11.42,0-17.14,0-4.85,0-9.71,0-14.56,0-1.09.01-2.19,0-3.28,0-.25.05-.37.34-.37,4.78,0,9.55-.02,14.33.02,2.14.02,4.24.34,6.21,1.26,2.04.95,3.61,2.38,4.45,4.51,1.51,3.82.14,8.03-3.31,10.28-.53.34-1.12.58-1.67,1.01Zm-14.25,8.88h0c0,2.39,0,4.77,0,7.16,0,.27.07.37.35.37,2.9-.04,5.8.1,8.69-.08,2.15-.14,3.96-1.01,5.15-2.9.67-1.06.96-2.24,1-3.49.05-1.53.09-3.05-.5-4.52-.89-2.2-2.52-3.52-4.83-3.77-3.11-.35-6.26-.05-9.39-.34-.37-.03-.47.08-.47.45.02,2.37,0,4.75,0,7.12Zm.02-16.77s-.02,0-.04,0c0,2.19,0,4.38,0,6.57,0,.22-.03.42.31.41,2.66-.05,5.32.08,7.97-.07,2.28-.13,4.17-1.61,4.88-3.78.47-1.43.54-2.9.37-4.38-.16-1.37-.6-2.65-1.6-3.67-1.25-1.28-2.83-1.84-4.57-1.89-2.35-.07-4.71-.04-7.06-.06-.24,0-.27.09-.27.31,0,2.19,0,4.38,0,6.57Z" fill="url(#linear-gradient-2)" stroke-width="0"/><path d="m105.01,76.4c-.09.32-.03.58-.03.84,0,5.48.01,10.95.01,16.43,0,3.14-.02,6.28-.02,9.42,0,.31-.09.42-.41.4-.51-.02-1.03-.02-1.55,0-.28.01-.43-.05-.38-.36.02-.14,0-.29,0-.43,0-11.84,0-23.67-.01-35.51,0-.3.09-.35.38-.38.71-.07,1.19.19,1.69.73,2.44,2.64,4.93,5.23,7.41,7.83,5.76,6.05,11.52,12.09,17.28,18.14.4.42.8.84,1.2,1.26.05.05.1.11.16.09.1-.03.07-.13.07-.2,0-.73-.02-1.45-.02-2.18,0-7.2,0-14.41,0-21.61,0-.95.02-1.9.02-2.85,0-.23.05-.33.3-.33.58.02,1.16.01,1.75,0,.21,0,.29.07.27.27,0,.06,0,.13,0,.2,0,11.85,0,23.7,0,35.55,0,.12,0,.24,0,.36,0,.21-.06.33-.3.29-.01,0-.03,0-.04,0-.7.1-1.18-.16-1.68-.69-4.75-5.02-9.53-10.01-14.3-15-3.75-3.93-7.5-7.85-11.25-11.78-.16-.17-.32-.35-.56-.49Z" fill="url(#linear-gradient-3)" stroke-width="0"/><path d="m71.62,85.56c0-5.84,0-11.69,0-17.53,0-.37.18-.33.41-.33,6.15,0,12.31,0,18.46,0,1.3,0,2.59.01,3.89,0,.34,0,.43.1.41.43-.02.49-.02.98.02,1.46.03.36-.12.45-.45.45-1.67-.01-3.33,0-5,0-3.64,0-7.28,0-10.92,0-.54,0-.55,0-.55.55,0,4.53,0,9.05-.01,13.58,0,.35.16.34.41.34,4.15,0,8.31,0,12.46-.01.41,0,.51.11.49.5-.03.5-.02,1,0,1.5.01.28-.09.37-.36.36-.61-.01-1.22,0-1.83,0-3.56,0-7.12,0-10.68,0-.38,0-.48.09-.48.48.01,4.5.01,9,0,13.5,0,.33.14.35.41.35,5.57,0,11.14,0,16.71,0,.37,0,.44.12.41.46-.04.49-.04.98-.02,1.46,0,.3-.07.41-.4.4-1.46-.02-2.91,0-4.37,0-6.15,0-12.31,0-18.46,0-.37,0-.53-.05-.53-.48.01-2.9,0-5.8-.01-8.71,0-2.92,0-5.83,0-8.75h0Z" fill="url(#linear-gradient-4)" stroke-width="0"/><path d="m0,85.59c0-5.09,0-10.19,0-15.28,0-.77.04-1.53.03-2.3,0-.26.09-.33.34-.33,7.45,0,14.9,0,22.35,0,.27,0,.37.08.36.36-.02.55,0,1.11.01,1.66,0,.23-.06.31-.32.31-5.19,0-10.37,0-15.56,0-.08,0-.16,0-.24,0-.86-.01-.87-.01-.87.86,0,4.39,0,8.79-.01,13.18,0,.36.12.43.45.43,4.17-.01,8.34,0,12.51-.02.38,0,.47.11.45.47-.02.47-.02.95.02,1.42.03.39-.11.49-.49.49-4.04-.01-8.07,0-12.11,0-.81,0-.82,0-.82.82,0,4.39,0,8.79,0,13.18,0,.33.17.32.4.32,1.85,0,3.71,0,5.56,0,3.71,0,7.41,0,11.12,0,.52,0,.52,0,.52.53,0,.45-.02.9,0,1.35.02.36-.11.45-.46.44-4.42,0-8.84,0-13.26,0-3.15,0-6.3,0-9.45,0q-.5,0-.51-.52c-.07-5.53-.01-11.06-.03-16.59,0-.26,0-.53,0-.79Z" fill="url(#linear-gradient-5)" stroke-width="0"/><path d="m255.72,67.7c-1.2,1.99-2.36,3.91-3.52,5.82-2.82,4.68-5.62,9.36-8.48,14.02-.5.82-.69,1.62-.68,2.56.04,4.34.02,8.68.04,13.02,0,.26-.06.37-.35.37-1.8-.01-3.6-.02-5.4,0-.35,0-.39-.14-.39-.42,0-1.75-.03-3.51-.02-5.26,0-2.84-.04-5.67.04-8.51.01-.47-.12-.86-.37-1.26-3.62-5.89-7.23-11.79-10.84-17.68-.48-.78-.96-1.55-1.44-2.32-.05-.09-.16-.17-.12-.28.05-.13.19-.07.28-.07,2.2,0,4.39,0,6.59,0,.22,0,.33.08.43.26,3.22,5.49,6.46,10.98,9.68,16.48.24.41.47.82.71,1.23.12.21.2.27.36,0,2.66-4.45,5.32-8.9,7.98-13.35.88-1.47,1.75-2.95,2.63-4.42.08-.13.16-.2.31-.2.83,0,1.66,0,2.56,0Z" fill="url(#linear-gradient-6)" stroke-width="0"/><path d="m221.95,103.72h-5.96l-11.38-26.74-8,16.4s-2.19,4.65,1.36,6.39,6.76-.72,8.42-2.25,2.96-3.52,2.96-3.52c0,0,1.42,1.53-.95,4.8-2.37,3.27-5.57,5.87-9.96,5.57s-7.59-4.09-5.1-9.91c2.49-5.82,13.04-27.48,13.04-27.48l15.56,36.75Z" fill="url(#linear-gradient-7)" stroke-width="0"/><path d="m30.86,93.41c1.18-1.46,3.21-3.03,6.36-3.32,0-1.5,0-3.01,0-4.51,0-4.75,0-9.5,0-14.25,0-.17,0-.34,0-.51,0-.8,0-.8.82-.8,2.47,0,4.95-.03,7.42,0,2.62.03,4.99.79,7.01,2.52,1.22,1.04,2.1,2.32,2.77,3.76,1.27,2.75,1.68,5.67,1.67,8.66,0,1.83.02,3.67-.32,5.48-.2,1.1-.47,2.18-.84,3.22,3.8-.79,6.4-2.96,7.37-3.89.24-1.23.38-2.49.45-3.77.06-1.18-.15-2.34-.3-3.5-.25-2.01-.8-3.92-1.7-5.73-1.63-3.3-4.16-5.69-7.49-7.22-2.91-1.33-5.99-1.85-9.18-1.85-4.54,0-9.08,0-13.62,0-.35,0-.44.08-.44.43.01,5.82,0,11.64,0,17.46,0,2.61,0,5.22,0,7.84Z" fill="url(#linear-gradient-8)" stroke-width="0"/><path d="m61.97,94.74s-4.35,3.93-10.14,3.93-9.07-4.76-13.86-4.76c-5.92,0-7.05,5.38-7.05,5.38,0,0,3.88-1.97,7.49-.61,3.61,1.37,9.07,5.35,13.38,4.74,4.88-.69,9-5.65,10.17-8.69Z" fill="url(#linear-gradient-9)" stroke-width="0"/></g></svg>