<?xml version="1.0" encoding="UTF-8"?><svg id="Layer_2" xmlns="http://www.w3.org/2000/svg" xmlns:xlink="http://www.w3.org/1999/xlink" viewBox="0 0 170.84 139"><defs><linearGradient id="linear-gradient" x1="86.08" y1="123.1" x2="86.08" y2="148.32" gradientTransform="translate(0 .5)" gradientUnits="userSpaceOnUse"><stop offset="0" stop-color="#eaed9f"/><stop offset=".12" stop-color="#fdbb54"/><stop offset=".26" stop-color="#eaed9f"/><stop offset=".35" stop-color="#fdbb54"/><stop offset=".5" stop-color="#eaed9f"/><stop offset=".62" stop-color="#fdbb54"/><stop offset=".81" stop-color="#eaed9f"/><stop offset="1" stop-color="#c26a27"/></linearGradient><linearGradient id="linear-gradient-2" x1="85.42" y1="122.83" x2="85.42" y2="146.6" xlink:href="#linear-gradient"/><linearGradient id="linear-gradient-3" x1="85.42" y1="122.83" x2="85.42" y2="146.6" xlink:href="#linear-gradient"/><linearGradient id="linear-gradient-4" x1="85.42" y1="122.83" x2="85.42" y2="146.6" xlink:href="#linear-gradient"/><linearGradient id="linear-gradient-5" x1="85.42" y1="122.83" x2="85.42" y2="146.6" xlink:href="#linear-gradient"/><linearGradient id="linear-gradient-6" x1="85.42" y1="122.83" x2="85.42" y2="146.6" xlink:href="#linear-gradient"/><linearGradient id="linear-gradient-7" x1="85.42" y1="122.83" x2="85.42" y2="146.6" xlink:href="#linear-gradient"/><linearGradient id="linear-gradient-8" x1="85.42" y1="122.83" x2="85.42" y2="146.6" xlink:href="#linear-gradient"/><linearGradient id="linear-gradient-9" x1="64.59" y1="-2.65" x2="64.59" y2="105.14" gradientTransform="matrix(1,0,0,1,0,0)" xlink:href="#linear-gradient"/><linearGradient id="New_Gradient_Swatch_copy_2" x1="35.58" y1="95.94" x2="40.82" y2="95.94" gradientUnits="userSpaceOnUse"><stop offset="0" stop-color="#e5437b"/><stop offset="1" stop-color="#f89d56"/></linearGradient><linearGradient id="linear-gradient-10" x1="89.49" y1="-3.79" x2="89.49" y2="105.68" gradientTransform="matrix(1,0,0,1,0,0)" xlink:href="#linear-gradient"/><linearGradient id="linear-gradient-11" x1="85.39" y1="-3.79" x2="85.39" y2="105.68" gradientTransform="matrix(1,0,0,1,0,0)" xlink:href="#linear-gradient"/><linearGradient id="linear-gradient-12" x1="89.06" y1="42.45" x2="89.06" y2="114.55" gradientTransform="matrix(1,0,0,1,0,0)" xlink:href="#linear-gradient"/><linearGradient id="linear-gradient-13" x1="115.63" y1="-2.65" x2="115.63" y2="105.14" gradientTransform="matrix(1,0,0,1,0,0)" xlink:href="#linear-gradient"/><clipPath id="clippath"><path d="m97.34,45.7h-19.67l-5.23,9.07h24.9c10.1,0,18.32,8.22,18.32,18.32s-8.22,18.32-18.32,18.32h-46.06l-5.23,9.07h51.29c15.1,0,27.38-12.28,27.38-27.38s-12.28-27.38-27.38-27.38Z" fill="none" stroke-width="0"/></clipPath><linearGradient id="New_Gradient_Swatch" x1="81.24" y1="-1127.66" x2="139.25" y2="-1127.66" gradientTransform="translate(174.84 -1068.36) rotate(-180)" gradientUnits="userSpaceOnUse"><stop offset="0" stop-color="#5a4da0"/><stop offset="1" stop-color="#a06faf"/></linearGradient><filter id="drop-shadow-1" filterUnits="userSpaceOnUse"><feOffset dx="0" dy="2.28"/><feGaussianBlur result="blur" stdDeviation="4.57"/><feFlood flood-color="#1e2552" flood-opacity=".7"/><feComposite in2="blur" operator="in"/><feComposite in="SourceGraphic"/></filter><clipPath id="clippath-1"><path d="m72.3,0c-15.1,0-27.38,12.28-27.38,27.38,0,11.81,7.51,21.89,18.01,25.73l4.64-8.04c-7.81-2.09-13.58-9.23-13.58-17.7,0-10.1,8.22-18.32,18.32-18.32h56.53l5.23-9.07h-61.76Z" fill="none" stroke-width="0"/></clipPath><filter id="drop-shadow-2" filterUnits="userSpaceOnUse"><feOffset dx="-5.14" dy="2.28"/><feGaussianBlur result="blur-2" stdDeviation="4.57"/><feFlood flood-color="#4e0111" flood-opacity=".7"/><feComposite in2="blur-2" operator="in"/><feComposite in="SourceGraphic"/></filter><clipPath id="clippath-2"><path d="m86.52,82.34h-10.47l15.92-27.57h5.37c1.64,0,3.22.22,4.74.62l-15.56,26.95ZM123.59,0l-26.39,45.7h.14c3.29,0,6.45.58,9.38,1.65L134.06,0h-10.47Z" fill="none" stroke-width="0"/></clipPath><linearGradient id="New_Gradient_Swatch_copy_3" x1="80.29" y1="39.45" x2="84.47" y2="77.63" gradientUnits="userSpaceOnUse"><stop offset="0" stop-color="#0c75bc"/><stop offset="1" stop-color="#2fc3e5"/></linearGradient><filter id="drop-shadow-3" filterUnits="userSpaceOnUse"><feOffset dx="0" dy="2.28"/><feGaussianBlur result="blur-3" stdDeviation="4.57"/><feFlood flood-color="#271d53" flood-opacity=".7"/><feComposite in2="blur-3" operator="in"/><feComposite in="SourceGraphic"/></filter><linearGradient id="linear-gradient-14" x1="106.12" y1="-2.65" x2="106.12" y2="105.14" gradientTransform="matrix(1,0,0,1,0,0)" xlink:href="#linear-gradient"/><linearGradient id="linear-gradient-15" x1="59.27" y1="-2.65" x2="59.27" y2="105.14" gradientTransform="matrix(1,0,0,1,0,0)" xlink:href="#linear-gradient"/></defs><g id="Layer_1-2"><path d="m.54,139v-2.44h14.36c1.38,0,2.06-.51,2.06-1.52v-2.09c0-1.02-.69-1.52-2.06-1.52H5.18c-.94,0-1.74-.1-2.39-.29-.66-.2-1.19-.47-1.61-.82-.41-.35-.72-.77-.9-1.25s-.28-1.02-.28-1.62v-.96c0-.58.09-1.11.28-1.61.19-.49.49-.91.9-1.27.41-.35.95-.63,1.61-.82.66-.2,1.45-.29,2.39-.29h13.98v2.44H5.18c-1.38,0-2.06.51-2.06,1.52v1.01c0,1.02.69,1.52,2.06,1.52h9.71c.94,0,1.74.1,2.39.29.66.2,1.19.47,1.61.82.41.35.72.77.9,1.27.19.49.28,1.03.28,1.61v2.04c0,.59-.09,1.13-.28,1.62-.19.48-.49.9-.9,1.26-.41.35-.95.63-1.61.82-.66.2-1.45.29-2.39.29H.54Z" fill="#fff" stroke-width="0"/><path d="m43.28,139l-8.52-13.3-8.66,13.3h-3.47l10.98-16.51h2.28l10.91,16.51h-3.52Z" fill="#fff" stroke-width="0"/><path d="m50.67,139v-16.51h3.12v14.07h13.39v2.44h-16.51Z" fill="#fff" stroke-width="0"/><path d="m74.27,139v-14.07h-8.66v-2.44h20.2v2.44h-8.42v14.07h-3.12Z" fill="#fff" stroke-width="0"/><path d="m104.31,139v-16.51h13.44c.91,0,1.69.08,2.33.25.65.16,1.17.4,1.57.7.4.31.69.68.88,1.13.19.45.28.94.28,1.49v1.52c0,.72-.18,1.33-.53,1.82s-.83.8-1.42.93c.63.17,1.14.47,1.55.88.41.41.61,1.02.61,1.82v2.42c0,.47-.08.92-.25,1.35-.16.43-.45.81-.84,1.14-.4.33-.93.59-1.61.79-.67.2-1.52.29-2.53.29h-13.49Zm15.39-12.78c0-.45-.14-.78-.41-.99-.27-.2-.79-.31-1.54-.31h-10.32v4.29h10.32c.75,0,1.26-.1,1.54-.3.27-.2.41-.53.41-.99v-1.71Zm.21,6.85c0-.52-.2-.88-.59-1.09-.39-.21-.9-.32-1.52-.32h-10.37v4.9h10.37c.63,0,1.13-.12,1.52-.35.39-.23.59-.69.59-1.36v-1.78Z" fill="#fff" stroke-width="0"/><path d="m146.42,139l-8.51-13.3-8.66,13.3h-3.47l10.98-16.51h2.28l10.91,16.51h-3.52Z" fill="#fff" stroke-width="0"/><path d="m157.19,139v-6.71l-10.6-9.8h3.99l8.16,7.55,8.16-7.55h3.94l-10.53,9.8v6.71h-3.12Z" fill="#fff" stroke-width="0"/><path d="m-.32,139.86v-4.16h15.21c1.21,0,1.21-.4,1.21-.67v-2.09c0-.27,0-.67-1.21-.67H5.18c-1.02,0-1.9-.11-2.64-.33-.77-.23-1.41-.56-1.92-.99-.52-.44-.91-.98-1.15-1.6-.23-.58-.34-1.23-.34-1.93v-.96c0-.68.11-1.32.34-1.91.24-.63.62-1.17,1.15-1.61.5-.43,1.15-.76,1.92-.99.73-.22,1.62-.33,2.64-.33h14.84v4.16H5.18c-1.21,0-1.21.4-1.21.67v1.01c0,.27,0,.67,1.21.67h9.71c1.02,0,1.9.11,2.64.33.77.23,1.41.56,1.92.99.52.45.91.99,1.15,1.62.22.59.34,1.23.34,1.91v2.04c0,.7-.11,1.35-.34,1.93-.24.62-.63,1.16-1.15,1.6-.51.43-1.15.76-1.92.99-.73.22-1.62.33-2.64.33H-.32Z" fill="url(#linear-gradient)" stroke-width="0"/><polygon points="42.81 139.86 34.76 127.28 26.57 139.86 21.04 139.86 33.15 121.63 36.35 121.63 48.39 139.86 42.81 139.86" fill="url(#linear-gradient)" stroke-width="0"/><polygon points="49.81 139.86 49.81 121.63 54.65 121.63 54.65 135.7 68.04 135.7 68.04 139.86 49.81 139.86" fill="url(#linear-gradient)" stroke-width="0"/><polygon points="73.41 139.86 73.41 125.78 64.75 125.78 64.75 121.63 86.67 121.63 86.67 125.78 78.24 125.78 78.24 139.86 73.41 139.86" fill="url(#linear-gradient)" stroke-width="0"/><path d="m103.46,139.86v-18.23h14.3c.98,0,1.83.09,2.55.27.76.19,1.39.48,1.88.85.52.4.9.89,1.15,1.47.23.55.35,1.16.35,1.82v1.52c0,.9-.23,1.68-.69,2.32-.1.14-.2.27-.32.38.13.1.25.21.36.32.57.58.86,1.39.86,2.42v2.42c0,.57-.1,1.13-.3,1.65-.22.57-.59,1.07-1.1,1.5-.49.4-1.13.72-1.91.95-.75.22-1.66.33-2.77.33h-14.35Zm14.35-4.16c.46,0,.83-.08,1.08-.23.16-.09.17-.5.17-.62v-1.78c0-.26-.08-.3-.14-.34-.26-.14-.64-.21-1.12-.21h-9.51v3.19h9.51Zm-.05-7.34c.81,0,1.02-.13,1.03-.14.04-.03.06-.15.06-.29v-1.71c0-.15-.03-.27-.06-.3,0,0-.21-.13-1.02-.13h-9.46v2.58h9.46Z" fill="url(#linear-gradient)" stroke-width="0"/><polygon points="145.95 139.86 137.9 127.28 129.72 139.86 124.18 139.86 136.3 121.63 139.49 121.63 151.53 139.86 145.95 139.86" fill="url(#linear-gradient)" stroke-width="0"/><polygon points="156.33 139.86 156.33 132.67 144.39 121.63 150.91 121.63 158.74 128.87 166.56 121.63 173.02 121.63 161.17 132.67 161.17 139.86 156.33 139.86" fill="url(#linear-gradient)" stroke-width="0"/><path d="m.54,139v-2.44h14.36c1.38,0,2.06-.51,2.06-1.52v-2.09c0-1.02-.69-1.52-2.06-1.52H5.18c-.94,0-1.74-.1-2.39-.29-.66-.2-1.19-.47-1.61-.82-.41-.35-.72-.77-.9-1.25s-.28-1.02-.28-1.62v-.96c0-.58.09-1.11.28-1.61.19-.49.49-.91.9-1.27.41-.35.95-.63,1.61-.82.66-.2,1.45-.29,2.39-.29h13.98v2.44H5.18c-1.38,0-2.06.51-2.06,1.52v1.01c0,1.02.69,1.52,2.06,1.52h9.71c.94,0,1.74.1,2.39.29.66.2,1.19.47,1.61.82.41.35.72.77.9,1.27.19.49.28,1.03.28,1.61v2.04c0,.59-.09,1.13-.28,1.62-.19.48-.49.9-.9,1.26-.41.35-.95.63-1.61.82-.66.2-1.45.29-2.39.29H.54Z" fill="url(#linear-gradient-2)" stroke-width="0"/><path d="m43.28,139l-8.52-13.3-8.66,13.3h-3.47l10.98-16.51h2.28l10.91,16.51h-3.52Z" fill="url(#linear-gradient-3)" stroke-width="0"/><path d="m50.67,139v-16.51h3.12v14.07h13.39v2.44h-16.51Z" fill="url(#linear-gradient-4)" stroke-width="0"/><path d="m74.27,139v-14.07h-8.66v-2.44h20.2v2.44h-8.42v14.07h-3.12Z" fill="url(#linear-gradient-5)" stroke-width="0"/><path d="m104.31,139v-16.51h13.44c.91,0,1.69.08,2.33.25.65.16,1.17.4,1.57.7.4.31.69.68.88,1.13.19.45.28.94.28,1.49v1.52c0,.72-.18,1.33-.53,1.82s-.83.8-1.42.93c.63.17,1.14.47,1.55.88.41.41.61,1.02.61,1.82v2.42c0,.47-.08.92-.25,1.35-.16.43-.45.81-.84,1.14-.4.33-.93.59-1.61.79-.67.2-1.52.29-2.53.29h-13.49Zm15.39-12.78c0-.45-.14-.78-.41-.99-.27-.2-.79-.31-1.54-.31h-10.32v4.29h10.32c.75,0,1.26-.1,1.54-.3.27-.2.41-.53.41-.99v-1.71Zm.21,6.85c0-.52-.2-.88-.59-1.09-.39-.21-.9-.32-1.52-.32h-10.37v4.9h10.37c.63,0,1.13-.12,1.52-.35.39-.23.59-.69.59-1.36v-1.78Z" fill="url(#linear-gradient-6)" stroke-width="0"/><path d="m146.42,139l-8.51-13.3-8.66,13.3h-3.47l10.98-16.51h2.28l10.91,16.51h-3.52Z" fill="url(#linear-gradient-7)" stroke-width="0"/><path d="m157.19,139v-6.71l-10.6-9.8h3.99l8.16,7.55,8.16-7.55h3.94l-10.53,9.8v6.71h-3.12Z" fill="url(#linear-gradient-8)" stroke-width="0"/><polygon points="83.13 18.13 35.58 100.47 46.05 100.47 93.59 18.13 83.13 18.13" fill="url(#linear-gradient-9)" stroke-width="0"/><polygon points="40.81 91.41 35.58 100.47 40.82 91.41 40.81 91.41" fill="url(#New_Gradient_Swatch_copy_2)" stroke-width="0"/><path d="m72.3,0c-15.1,0-27.38,12.28-27.38,27.38,0,11.81,7.51,21.89,18.01,25.73l4.64-8.04c-7.81-2.09-13.58-9.23-13.58-17.7,0-10.1,8.22-18.32,18.32-18.32h56.53l5.23-9.07h-61.76Z" fill="url(#linear-gradient-10)" stroke-width="0"/><path d="m97.34,45.7h-19.67l-5.23,9.07h24.9c10.1,0,18.32,8.22,18.32,18.32s-8.22,18.32-18.32,18.32h-46.06l-5.23,9.07h51.29c15.1,0,27.38-12.28,27.38-27.38s-12.28-27.38-27.38-27.38Z" fill="url(#linear-gradient-11)" stroke-width="0"/><path d="m102.08,55.39c-1.51-.4-3.1-.62-4.74-.62h-5.37l-15.92,27.57h10.47l15.56-26.95Z" fill="url(#linear-gradient-12)" stroke-width="0"/><path d="m123.59,0l-26.39,45.7h.14c3.29,0,6.45.58,9.38,1.65L134.06,0h-10.47Z" fill="url(#linear-gradient-13)" stroke-width="0"/><g clip-path="url(#clippath)"><polygon points="83.13 18.13 35.58 100.47 46.05 100.47 93.59 18.13 83.13 18.13" fill="url(#New_Gradient_Swatch)" filter="url(#drop-shadow-1)" stroke-width="0"/></g><g clip-path="url(#clippath-1)"><polygon points="83.13 18.13 35.58 100.47 46.05 100.47 93.59 18.13 83.13 18.13" fill="url(#New_Gradient_Swatch)" filter="url(#drop-shadow-2)" stroke-width="0"/></g><g clip-path="url(#clippath-2)"><path d="m97.34,45.7h-19.67l-5.23,9.07h24.9c10.1,0,18.32,8.22,18.32,18.32s-8.22,18.32-18.32,18.32h-46.06l-5.23,9.07h51.29c15.1,0,27.38-12.28,27.38-27.38s-12.28-27.38-27.38-27.38Z" fill="url(#New_Gradient_Swatch_copy_3)" filter="url(#drop-shadow-3)" stroke-width="0"/></g><polygon points="123.59 0 118.36 9.07 88.64 9.07 88.64 0 123.59 0" fill="url(#linear-gradient-14)" stroke-width="0"/><polygon points="51.29 91.41 46.05 100.47 72.5 100.47 72.5 91.41 51.29 91.41" fill="url(#linear-gradient-15)" stroke-width="0"/></g></svg>