<svg width="160" height="164" viewBox="0 0 160 164" fill="none" xmlns="http://www.w3.org/2000/svg">
<path d="M20.7067 40.1113L17.8722 43.8051L17.4787 43.5031L17.6136 42.8805C17.6659 42.5846 17.6673 42.3638 17.6177 42.2182C17.5681 42.0725 17.4417 41.9218 17.2386 41.7659L11.3109 37.217C11.1078 37.0611 10.9295 36.9781 10.776 36.9679C10.6141 36.9512 10.4012 37.0096 10.1373 37.1432L9.57081 37.4346L9.17732 37.1326L12.0119 33.4389L12.4054 33.7409L12.2705 34.3634C12.2032 34.6614 12.1986 34.8864 12.2566 35.0385C12.3062 35.1841 12.4326 35.3349 12.6357 35.4907L18.5634 40.0397C18.7665 40.1955 18.9448 40.2786 19.0983 40.2888C19.2518 40.299 19.4679 40.2363 19.7468 40.1007L20.3132 39.8094L20.7067 40.1113ZM30.9752 28.6354L27.5427 31.3626L27.2441 30.9868L27.551 30.3956C27.6701 30.1511 27.719 29.9556 27.6979 29.8089C27.6767 29.6622 27.5798 29.4803 27.4073 29.2632L25.1678 26.4446C24.9356 26.1523 24.7396 25.9742 24.5799 25.9103C24.4219 25.8315 24.2311 25.84 24.0076 25.9359L23.4596 26.1465L23.171 25.7832L24.5037 23.2939L25.0012 23.2256L25.9467 24.4156C25.9274 23.7226 26.0219 23.0957 26.2304 22.535C26.4322 21.9659 26.7335 21.5222 27.1344 21.2037C27.7858 20.6861 28.4753 20.4993 29.2028 20.6433C29.9303 20.7874 30.6059 21.2519 31.2296 22.037L33.2701 24.605C33.4426 24.8222 33.5979 24.9576 33.736 25.0114C33.8824 25.0585 34.084 25.055 34.3407 25.0009L34.9734 24.8456L35.272 25.2214L31.8521 27.9387L31.5535 27.5629L31.8603 26.9717C31.9676 26.7638 32.0065 26.5899 31.977 26.4498C31.9559 26.3032 31.8524 26.1129 31.6666 25.8791L29.8849 23.6367C29.4802 23.1272 29.0664 22.8293 28.6435 22.743C28.2207 22.6566 27.8047 22.776 27.3954 23.1011C27.1449 23.3002 26.9474 23.5661 26.8031 23.8988C26.667 24.2248 26.5934 24.5694 26.5822 24.9325L29.0108 27.9892C29.1966 28.223 29.3544 28.3701 29.4841 28.4305C29.6222 28.4843 29.8046 28.4824 30.0314 28.4249L30.6766 28.2596L30.9752 28.6354ZM47.6433 16.697L46.749 17.6557L41.4067 12.7585C41.1895 12.55 41.0178 12.4206 40.8917 12.3703C40.7614 12.3102 40.573 12.2634 40.3265 12.23L39.8852 12.1757L39.6958 11.7347L43.768 9.98556L43.9575 10.4266L43.6237 10.7441C43.4725 10.8787 43.3697 11.0041 43.3152 11.1204C43.2606 11.2367 43.2565 11.3488 43.3028 11.4566C43.3197 11.4958 43.3526 11.5455 43.4017 11.6057C43.4507 11.6658 43.518 11.7414 43.6035 11.8324L46.7279 14.809L46.7055 10.5C46.7082 10.3712 46.6997 10.2703 46.6801 10.1975C46.6702 10.1205 46.6568 10.0624 46.64 10.0232C46.5937 9.91538 46.5096 9.84122 46.3877 9.80069C46.2658 9.76017 46.1041 9.7484 45.9024 9.76537L45.4423 9.78884L45.2529 9.34781L48.1931 8.08492L48.3826 8.52596L48.0258 8.99264C47.9167 9.14399 47.8341 9.28972 47.7782 9.42983C47.7181 9.56013 47.6874 9.75904 47.6863 10.0266L47.6433 16.697ZM64.5234 11.2779C63.3314 11.4563 62.3291 11.245 61.5165 10.644C60.7145 10.0414 60.2148 9.08081 60.0174 7.76217C59.899 6.97098 59.9559 6.23444 60.1882 5.55254C60.431 4.86907 60.8157 4.30458 61.3422 3.85907C61.8777 3.40143 62.52 3.11655 63.269 3.00445C63.9758 2.89867 64.6089 2.9495 65.1685 3.15696C65.737 3.3523 66.2092 3.69686 66.5851 4.19066C66.961 4.68446 67.2111 5.31034 67.3353 6.0683L67.3898 6.43225L62.1837 7.21143L62.2074 7.36967C62.3479 8.30855 62.6874 8.99115 63.2258 9.41749C63.7641 9.84383 64.4395 9.99621 65.2518 9.87464C65.621 9.81938 65.9507 9.71611 66.2408 9.56483C66.5399 9.40142 66.8372 9.18975 67.1326 8.92982L67.6791 9.44662C67.3024 9.956 66.851 10.3633 66.3251 10.6685C65.8097 10.9721 65.2091 11.1753 64.5234 11.2779ZM62.0899 6.36804L65.2135 5.83581C65.1019 5.16224 64.885 4.65004 64.5629 4.29919C64.2513 3.94676 63.8739 3.80371 63.4309 3.87002C62.9562 3.94107 62.6048 4.1878 62.3768 4.6102C62.1578 5.02047 62.0622 5.60642 62.0899 6.36804ZM82.0772 9.53818C81.5571 9.48703 81.0384 9.36636 80.5212 9.17617C80.005 8.97536 79.5636 8.72296 79.1969 8.41895L79.6187 6.41862L80.1282 6.46872L80.4702 7.2419C80.6832 7.69157 80.9284 8.03187 81.2058 8.26279C81.4939 8.49475 81.8502 8.63161 82.2748 8.67336C82.6569 8.71094 82.979 8.6515 83.2409 8.49504C83.5028 8.33859 83.6509 8.0852 83.6854 7.73489C83.7031 7.55443 83.6668 7.37936 83.5763 7.20969C83.4964 7.04107 83.3167 6.85191 83.0372 6.64222C82.7683 6.43357 82.3742 6.19117 81.8547 5.91501C81.1207 5.53201 80.593 5.12107 80.2717 4.68219C79.9505 4.24332 79.8154 3.7638 79.8666 3.24364C79.9355 2.54302 80.2609 2.01232 80.843 1.65155C81.4262 1.28017 82.1636 1.13832 83.0553 1.22599C83.5436 1.27401 84.0267 1.3751 84.5046 1.52927C84.9941 1.67387 85.411 1.84884 85.7552 2.05417L85.3794 3.91432L84.8539 3.86265C84.7666 3.66114 84.6771 3.48085 84.5856 3.3218C84.4951 3.15213 84.3881 2.9862 84.2647 2.82401C83.9637 2.39784 83.5424 2.15814 83.001 2.1049C82.6189 2.06733 82.3138 2.11772 82.0859 2.25607C81.8589 2.38381 81.7329 2.57507 81.7079 2.82984C81.6891 3.02092 81.725 3.20129 81.8155 3.37096C81.9176 3.53106 82.109 3.71065 82.3895 3.90972C82.6711 4.09818 83.0705 4.3411 83.5879 4.63849C84.3911 5.08188 84.9379 5.51614 85.2283 5.94127C85.5198 6.35578 85.6405 6.81781 85.5904 7.32735C85.5414 7.82628 85.36 8.25325 85.0465 8.60827C84.7329 8.96329 84.3162 9.22242 83.7964 9.38568C83.2872 9.54997 82.7141 9.6008 82.0772 9.53818ZM99.0403 12.0102C98.5656 11.8489 98.2143 11.6395 97.9864 11.3818C97.762 11.114 97.651 10.7609 97.6535 10.3224C97.6662 9.88732 97.7874 9.33145 98.0173 8.65477L99.4019 4.57956L98.2354 4.18323L98.5082 3.38031L99.9237 3.59087L101.957 1.93289L102.324 2.34485L101.681 4.23853L103.802 4.95913L103.462 5.959L101.341 5.2384L100.07 8.98032C99.8295 9.6873 99.7472 10.2113 99.8228 10.5525C99.9019 10.8835 100.128 11.1125 100.502 11.2395C100.664 11.2944 100.842 11.3325 101.038 11.3539C101.237 11.3651 101.427 11.3679 101.609 11.3622L101.565 12.0906C101.237 12.1932 100.842 12.2449 100.38 12.2456C99.9211 12.2362 99.4746 12.1578 99.0403 12.0102ZM130.852 30.4298L129.798 30.0837L131.006 19.1379L126.309 23.8765C126.136 24.0508 126.035 24.2285 126.006 24.4096C125.984 24.5832 126.045 24.8318 126.19 25.1555L126.464 25.7879L126.115 26.1402L123.422 23.4707L123.771 23.1184L124.383 23.342C124.647 23.4389 124.855 23.4719 125.006 23.4411C125.164 23.4026 125.337 23.2887 125.525 23.0993L130.785 17.7926C130.995 17.5805 131.104 17.3876 131.11 17.2141C131.125 17.0481 131.09 16.8484 131.006 16.615L130.811 16.0614L131.16 15.7092L133.365 17.8943L132.219 27.4596L136.33 23.3119C136.511 23.1301 136.612 22.9524 136.633 22.7788C136.663 22.6127 136.605 22.3603 136.46 22.0215L136.197 21.4004L136.547 21.0482L139.228 23.7064L138.879 24.0587L138.279 23.8463C138.007 23.757 137.792 23.7316 137.633 23.77C137.483 23.8008 137.313 23.9109 137.126 24.1003L130.852 30.4298ZM140.908 42.9399C140.512 42.2206 140.311 41.5029 140.306 40.787C140.316 40.0753 140.512 39.4134 140.893 38.8014C141.279 38.1988 141.842 37.6941 142.58 37.2875C143.103 36.9992 143.633 36.8229 144.17 36.7585C144.721 36.6982 145.253 36.7462 145.765 36.9024C146.287 37.0534 146.755 37.2949 147.169 37.6268C147.598 37.963 147.954 38.388 148.237 38.9018C148.639 39.6305 148.834 40.3508 148.825 41.0625C148.824 41.7691 148.631 42.4237 148.244 43.0263C147.863 43.6383 147.299 44.1502 146.551 44.562C145.86 44.9429 145.151 45.1264 144.425 45.1125C143.699 45.0985 143.025 44.9034 142.404 44.5272C141.782 44.151 141.284 43.6219 140.908 42.9399ZM141.679 42.5153C141.967 43.0385 142.446 43.3106 143.115 43.3316C143.793 43.3474 144.581 43.1083 145.478 42.6141C146.394 42.1097 147.026 41.5664 147.375 40.9844C147.724 40.4023 147.755 39.8497 147.466 39.3265C147.183 38.8126 146.7 38.5431 146.016 38.5179C145.347 38.4969 144.559 38.7361 143.653 39.2354C142.747 39.7347 142.119 40.2754 141.77 40.8574C141.426 41.4488 141.396 42.0014 141.679 42.5153ZM149.341 60.0147L148.614 58.9926L154.534 55.1676C154.756 55.0326 154.908 54.9018 154.99 54.7751C155.085 54.6566 155.176 54.4733 155.265 54.2252L155.4 53.787L155.869 53.6862L156.793 57.988L156.324 58.0889L156.077 57.7001C155.974 57.5258 155.865 57.4018 155.751 57.3282C155.648 57.2522 155.544 57.2255 155.44 57.2479C155.387 57.2591 155.326 57.2777 155.255 57.3038C155.184 57.33 155.1 57.3699 155.003 57.4235L151.623 59.4424L156.945 60.2956L157.519 61.3669L152.745 64.5856L156.65 65.0886C156.863 65.1191 157.023 65.1231 157.127 65.1007C157.242 65.076 157.33 65.0078 157.394 64.896C157.457 64.7842 157.5 64.6278 157.522 64.4266L157.584 63.955L158.054 63.8542L158.729 66.9984L158.26 67.0992L157.874 66.6748C157.715 66.4909 157.573 66.3632 157.448 66.2917C157.326 66.2307 157.152 66.1809 156.925 66.1423L150.46 65.2238L149.743 64.2487L154.553 60.8914L149.341 60.0147ZM154.625 96.1257C154.787 95.4956 155.121 95.031 155.628 94.7318C156.134 94.4326 156.698 94.3628 157.317 94.5224C157.948 94.6846 158.412 95.0189 158.711 95.5255C159.011 96.0321 159.079 96.6004 158.917 97.2306C158.755 97.8607 158.42 98.3253 157.914 98.6245C157.407 98.9237 156.839 98.9921 156.209 98.8299C155.589 98.6704 155.129 98.3374 154.83 97.8308C154.531 97.3242 154.463 96.7559 154.625 96.1257ZM138.592 124.859L141.477 121.205L141.867 121.512L141.723 122.133C141.667 122.428 141.662 122.649 141.71 122.795C141.757 122.942 141.882 123.094 142.083 123.253L147.947 127.883C148.148 128.041 148.325 128.127 148.479 128.139C148.64 128.158 148.854 128.103 149.12 127.973L149.69 127.689L150.079 127.997L147.194 131.651L146.805 131.344L146.948 130.723C147.02 130.426 147.027 130.201 146.971 130.048C146.924 129.902 146.8 129.749 146.599 129.591L140.734 124.96C140.533 124.802 140.356 124.716 140.203 124.704C140.05 124.692 139.832 124.751 139.552 124.883L138.981 125.167L138.592 124.859ZM128.154 136.177L131.635 133.512L131.927 133.893L131.61 134.479C131.486 134.721 131.434 134.916 131.452 135.063C131.471 135.21 131.564 135.393 131.733 135.613L133.922 138.472C134.149 138.768 134.342 138.949 134.5 139.016C134.657 139.098 134.848 139.093 135.073 139.001L135.624 138.8L135.907 139.168L134.53 141.634L134.031 141.693L133.107 140.486C133.114 141.18 133.008 141.805 132.79 142.362C132.578 142.927 132.269 143.365 131.862 143.677C131.202 144.182 130.509 144.357 129.784 144.2C129.059 144.043 128.392 143.566 127.782 142.77L125.788 140.166C125.619 139.946 125.467 139.808 125.329 139.752C125.184 139.702 124.982 139.702 124.725 139.751L124.089 139.895L123.797 139.514L127.265 136.858L127.557 137.239L127.24 137.825C127.129 138.031 127.087 138.204 127.114 138.345C127.132 138.492 127.232 138.684 127.414 138.921L129.155 141.195C129.551 141.711 129.959 142.017 130.381 142.111C130.802 142.204 131.22 142.092 131.635 141.775C131.889 141.58 132.091 141.318 132.241 140.988C132.383 140.664 132.463 140.321 132.481 139.958L130.107 136.859C129.925 136.621 129.77 136.472 129.642 136.409C129.505 136.353 129.322 136.351 129.094 136.405L128.446 136.559L128.154 136.177ZM111.278 147.823L112.188 146.88L117.448 151.865C117.662 152.077 117.831 152.209 117.957 152.262C118.086 152.324 118.273 152.374 118.519 152.411L118.96 152.473L119.142 152.917L115.041 154.598L114.859 154.154L115.198 153.842C115.351 153.71 115.456 153.586 115.513 153.471C115.569 153.356 115.575 153.244 115.531 153.135C115.514 153.096 115.482 153.045 115.434 152.984C115.386 152.923 115.32 152.847 115.236 152.754L112.162 149.726L112.112 154.035C112.108 154.164 112.114 154.265 112.133 154.338C112.141 154.415 112.154 154.473 112.17 154.513C112.214 154.621 112.297 154.697 112.419 154.739C112.54 154.782 112.701 154.796 112.903 154.783L113.364 154.767L113.546 155.211L110.585 156.425L110.403 155.981L110.767 155.52C110.879 155.371 110.964 155.226 111.022 155.087C111.084 154.958 111.118 154.759 111.124 154.492L111.278 147.823ZM94.3105 152.964C95.5052 152.804 96.504 153.032 97.3069 153.646C98.0992 154.261 98.5834 155.229 98.7596 156.551C98.8653 157.344 98.7966 158.08 98.5534 158.758C98.2996 159.437 97.9059 159.995 97.3723 160.432C96.8296 160.881 96.1829 161.156 95.4322 161.256C94.7238 161.351 94.0915 161.29 93.5353 161.073C92.97 160.869 92.5034 160.517 92.1355 160.017C91.7676 159.517 91.5276 158.887 91.4155 158.127L91.3669 157.763L96.5847 157.067L96.5635 156.908C96.4381 155.967 96.1096 155.28 95.5782 154.845C95.0467 154.41 94.3739 154.246 93.5598 154.355C93.1897 154.404 92.8584 154.502 92.5659 154.649C92.2642 154.808 91.9636 155.014 91.664 155.27L91.1258 154.744C91.5107 154.241 91.9685 153.841 92.4993 153.544C93.0195 153.249 93.6232 153.055 94.3105 152.964ZM96.665 157.912L93.5333 158.394C93.6341 159.069 93.8427 159.585 94.1592 159.941C94.4651 160.298 94.8401 160.447 95.2842 160.388C95.7599 160.325 96.1152 160.084 96.3499 159.665C96.5755 159.258 96.6805 158.674 96.665 157.912ZM76.7304 154.42C77.2497 154.479 77.7663 154.609 78.2802 154.807C78.793 155.017 79.2301 155.277 79.5917 155.587L79.1366 157.58L78.6279 157.521L78.2989 156.742C78.0934 156.289 77.8539 155.945 77.5804 155.709C77.2963 155.473 76.9423 155.33 76.5185 155.281C76.137 155.237 75.814 155.291 75.5495 155.443C75.285 155.595 75.1327 155.846 75.0924 156.196C75.0716 156.376 75.1051 156.551 75.1927 156.723C75.2698 156.893 75.4463 157.085 75.7222 157.299C75.9876 157.512 76.3777 157.761 76.8925 158.046C77.62 158.441 78.1407 158.861 78.4546 159.305C78.7685 159.749 78.8956 160.231 78.8357 160.75C78.7552 161.449 78.4209 161.975 77.8328 162.326C77.2436 162.687 76.5039 162.817 75.6138 162.714C75.1263 162.658 74.645 162.549 74.1698 162.387C73.6827 162.234 73.2688 162.052 72.928 161.841L73.3349 159.987L73.8594 160.048C73.9434 160.251 74.0298 160.433 74.1187 160.593C74.2064 160.764 74.3105 160.932 74.4312 161.096C74.7251 161.527 75.1423 161.774 75.6827 161.836C76.0642 161.88 76.37 161.835 76.6003 161.7C76.8293 161.577 76.9585 161.387 76.9878 161.133C77.0097 160.942 76.9769 160.761 76.8892 160.59C76.7898 160.428 76.6014 160.246 76.3243 160.042C76.0459 159.849 75.6505 159.599 75.1382 159.293C74.3425 158.837 73.8031 158.393 73.5197 157.963C73.2352 157.544 73.1222 157.08 73.1808 156.571C73.2382 156.073 73.4266 155.649 73.7461 155.3C74.0655 154.95 74.4865 154.698 75.009 154.543C75.5208 154.388 76.0946 154.346 76.7304 154.42ZM59.8102 151.666C60.2822 151.835 60.6301 152.05 60.8538 152.312C61.0738 152.583 61.1791 152.938 61.1695 153.376C61.1498 153.811 61.0195 154.365 60.7787 155.038L59.3284 159.09L60.4883 159.505L60.2026 160.304L58.7907 160.07L56.7306 161.695L56.3704 161.277L57.0443 159.394L54.9353 158.64L55.2912 157.645L57.4002 158.4L58.7319 154.679C58.9835 153.976 59.0743 153.454 59.0042 153.111C58.9305 152.779 58.7079 152.546 58.3363 152.413C58.1756 152.356 57.9977 152.315 57.8025 152.29C57.6038 152.276 57.4133 152.27 57.231 152.273L57.2875 151.545C57.6169 151.448 58.0126 151.403 58.4747 151.409C58.9332 151.426 59.3784 151.512 59.8102 151.666ZM28.3075 132.727L29.355 133.091L27.9566 144.014L32.7356 139.359C32.9113 139.187 33.0154 139.011 33.0479 138.831C33.0728 138.658 33.0157 138.408 32.8767 138.082L32.6134 137.445L32.9687 137.099L35.6148 139.815L35.2596 140.161L34.6516 139.927C34.389 139.825 34.182 139.789 34.0308 139.817C33.8719 139.852 33.697 139.963 33.506 140.149L28.154 145.364C27.9401 145.572 27.8282 145.763 27.8184 145.936C27.8012 146.102 27.8325 146.302 27.9124 146.537L28.0975 147.094L27.7422 147.44L25.5762 145.217L26.8887 135.673L22.7057 139.748C22.5223 139.927 22.4182 140.103 22.3933 140.276C22.361 140.442 22.4142 140.695 22.5531 141.036L22.8052 141.662L22.4499 142.008L19.8149 139.303L20.1702 138.957L20.767 139.18C21.0373 139.274 21.2519 139.303 21.4108 139.267C21.562 139.239 21.7331 139.132 21.9241 138.946L28.3075 132.727ZM18.4609 120.048C18.8463 120.774 19.0361 121.494 19.03 122.21C19.0096 122.922 18.8041 123.58 18.4136 124.187C18.018 124.783 17.4482 125.279 16.7041 125.675C16.1767 125.955 15.644 126.124 15.1062 126.18C14.554 126.232 14.0229 126.176 13.5131 126.012C12.9938 125.853 12.5295 125.605 12.1202 125.267C11.6966 124.924 11.3471 124.494 11.0717 123.976C10.6812 123.241 10.4962 122.518 10.5167 121.806C10.5278 121.1 10.731 120.448 11.1266 119.851C11.5171 119.245 12.0891 118.742 12.8426 118.341C13.5396 117.971 14.2511 117.798 14.977 117.823C15.7029 117.848 16.3737 118.053 16.9893 118.439C17.6049 118.824 18.0954 119.361 18.4609 120.048ZM17.6838 120.461C17.4035 119.934 16.9289 119.655 16.2601 119.624C15.5818 119.597 14.7906 119.825 13.8864 120.305C12.9633 120.796 12.3229 121.33 11.965 121.906C11.6072 122.483 11.5684 123.035 11.8488 123.563C12.1241 124.081 12.6034 124.357 13.2867 124.393C13.9555 124.424 14.7467 124.197 15.6603 123.711C16.574 123.226 17.2097 122.694 17.5676 122.118C17.9204 121.531 17.9592 120.979 17.6838 120.461ZM10.2989 102.845L11.0074 103.88L5.01901 107.598C4.79469 107.729 4.64045 107.857 4.55631 107.982C4.45965 108.099 4.36484 108.281 4.27188 108.527L4.12905 108.963L3.65803 109.055L2.81116 104.737L3.28219 104.645L3.52234 105.038C3.6221 105.214 3.72832 105.34 3.841 105.416C3.94322 105.494 4.04666 105.522 4.15133 105.502C4.20367 105.491 4.26545 105.474 4.33666 105.449C4.40788 105.424 4.49275 105.386 4.59126 105.334L8.00628 103.376L2.70051 102.427L2.14599 101.346L6.97742 98.2134L3.08231 97.6404C2.86906 97.6062 2.7101 97.5993 2.60543 97.6198C2.49029 97.6424 2.40009 97.709 2.33482 97.8196C2.26956 97.9303 2.22401 98.0859 2.19816 98.2867L2.12738 98.7571L1.65635 98.8495L1.03737 95.6936L1.5084 95.6012L1.88648 96.0325C2.04268 96.2193 2.18235 96.3495 2.3055 96.4232C2.4266 96.4864 2.60003 96.5393 2.8258 96.582L9.27343 97.6164L9.97265 98.6043L5.10305 101.875L10.2989 102.845ZM5.32266 66.8138C5.19413 67.4516 4.88486 67.9334 4.39488 68.259C3.9049 68.5846 3.34622 68.6842 2.71883 68.5578C2.08098 68.4292 1.59925 68.12 1.27363 67.63C0.948008 67.14 0.849466 66.5761 0.978004 65.9383C1.10654 65.3004 1.4158 64.8187 1.90579 64.4931C2.39577 64.1674 2.95968 64.0689 3.59752 64.1974C4.22491 64.3239 4.70142 64.6321 5.02704 65.1221C5.35266 65.612 5.4512 66.176 5.32266 66.8138Z" fill="#D2DACE"/>
</svg>
