<svg width="197" height="195" viewBox="0 0 197 195" fill="none" xmlns="http://www.w3.org/2000/svg">
<path d="M190.824 99.0897C190.836 98.5757 191.013 98.1513 191.354 97.8164C191.695 97.4911 192.118 97.3343 192.622 97.346C193.136 97.358 193.556 97.5344 193.881 97.8753C194.206 98.2257 194.363 98.6579 194.351 99.1719C194.339 99.6763 194.163 100.091 193.822 100.417C193.481 100.742 193.054 100.899 192.54 100.887C192.035 100.875 191.62 100.699 191.295 100.358C190.97 100.017 190.813 99.5941 190.824 99.0897Z" fill="#F6F1ED"/>
<path d="M186.547 81.6866C186.474 81.2741 186.49 80.9233 186.593 80.6343C186.697 80.3453 186.907 80.1101 187.223 79.9286C187.548 79.7454 188.002 79.6025 188.583 79.4999L192.661 78.7797L192.47 77.6968L193.075 77.59L193.492 78.72L195.571 79.3245L195.436 79.7108L193.678 80.0212L194.06 82.187L193.287 82.3236L192.904 80.1578L189.037 80.8408C188.409 80.9517 187.984 81.1186 187.762 81.3415C187.55 81.5626 187.477 81.8607 187.543 82.2358C187.576 82.4233 187.638 82.6105 187.729 82.7974C187.82 82.9844 187.914 83.1564 188.009 83.3136L187.542 83.5412C187.324 83.3476 187.117 83.0796 186.921 82.7372C186.736 82.4024 186.612 82.0522 186.547 81.6866Z" fill="#F6F1ED"/>
<path d="M182.485 66.8638L181.312 63.4766L181.663 63.3551L182.052 63.8248C182.205 64.0037 182.341 64.1075 182.462 64.1362C182.595 64.1708 182.769 64.1507 182.985 64.076L186.453 62.8752C186.732 62.7787 186.921 62.6681 187.019 62.5435C187.129 62.4249 187.167 62.2603 187.135 62.0499L187.07 61.5132L187.394 61.4011L188.894 63.0277L188.812 63.4035L187.49 63.8614C188.082 64.0292 188.583 64.2838 188.994 64.6253C189.416 64.9727 189.708 65.3803 189.87 65.8481C190.113 66.5499 190.071 67.1841 189.743 67.7509C189.428 68.3236 188.865 68.7501 188.055 69.0305L185.06 70.0677C184.844 70.1424 184.693 70.23 184.607 70.3303C184.532 70.4366 184.489 70.6027 184.477 70.8286L184.461 71.4385L184.11 71.56L182.942 68.1863L183.293 68.0648L183.683 68.5345C183.817 68.6895 183.944 68.7814 184.065 68.8101C184.198 68.8447 184.377 68.823 184.602 68.7452L187.314 67.8061C187.899 67.6036 188.299 67.319 188.515 66.9522C188.73 66.5854 188.752 66.1546 188.581 65.6598C188.466 65.3269 188.262 65.0297 187.97 64.7681C187.678 64.5065 187.339 64.3117 186.952 64.1837L183.443 65.3985C183.218 65.4763 183.063 65.5654 182.977 65.6658C182.899 65.763 182.857 65.9186 182.851 66.1324L182.835 66.7423L182.485 66.8638Z" fill="#F6F1ED"/>
<path d="M175.758 53.1787C175.25 52.2739 175.118 51.3978 175.363 50.5506C175.616 49.6987 176.266 48.9791 177.312 48.3919C177.926 48.0469 178.548 47.8615 179.178 47.8356C179.816 47.805 180.404 47.9281 180.941 48.2049C181.479 48.4818 181.906 48.9024 182.223 49.4669C182.517 49.9899 182.665 50.5071 182.668 51.0185C182.676 51.5381 182.538 52.0307 182.253 52.4962C181.969 52.9617 181.528 53.3729 180.931 53.7297L180.657 53.8835L178.252 49.5999L178.09 49.6908C177.293 50.1383 176.791 50.6718 176.582 51.2914C176.386 51.9146 176.472 52.5541 176.84 53.2099C177.031 53.5503 177.251 53.8253 177.5 54.035C177.753 54.2531 178.037 54.4376 178.351 54.5888L178.133 55.1044C177.644 54.9531 177.196 54.7188 176.788 54.4017C176.381 54.0845 176.037 53.6768 175.758 53.1787ZM178.846 49.3157L180.568 52.2957C181.124 51.9622 181.499 51.5712 181.695 51.1227C181.904 50.6779 181.889 50.2438 181.652 49.8204C181.409 49.3888 181.041 49.1315 180.547 49.0487C180.066 48.9694 179.499 49.0585 178.846 49.3157Z" fill="#F6F1ED"/>
<path d="M161.11 32.9694L158.672 30.4006L158.941 30.145L159.49 30.4119C159.696 30.5048 159.863 30.5429 159.992 30.526C160.127 30.5026 160.278 30.4123 160.443 30.255L163.105 27.7284C163.326 27.5187 163.456 27.3368 163.493 27.1829C163.531 27.029 163.495 26.8665 163.385 26.6952L163.104 26.2333L163.353 25.9974L165.391 26.8587L165.472 27.2346L164.457 28.198C164.809 28.1399 165.156 28.1186 165.499 28.1343C165.842 28.15 166.17 28.2192 166.483 28.3419C166.81 28.4649 167.098 28.6576 167.347 28.92C167.734 29.3274 167.955 29.7541 168.011 30.2C168.073 30.6528 167.987 31.1018 167.753 31.5469C168.071 31.4946 168.398 31.4795 168.734 31.5018C169.071 31.524 169.399 31.5999 169.718 31.7295C170.038 31.859 170.319 32.0516 170.562 32.3071C171.073 32.8457 171.297 33.4341 171.233 34.0722C171.169 34.7102 170.823 35.3275 170.195 35.9239L167.895 38.1064C167.723 38.2702 167.621 38.4124 167.591 38.5328C167.568 38.6602 167.597 38.8293 167.679 39.0402L167.917 39.602L167.648 39.8576L165.2 37.2784L165.469 37.0228L165.997 37.2891C166.184 37.3748 166.338 37.4058 166.46 37.382C166.595 37.3586 166.752 37.2617 166.932 37.0913L169.014 35.1153C169.932 34.2436 170.044 33.4418 169.349 32.7098C169.133 32.4819 168.848 32.3263 168.493 32.243C168.145 32.1531 167.748 32.136 167.302 32.1917C167.26 32.2445 167.208 32.3003 167.146 32.3593C167.098 32.4187 167.042 32.4778 166.98 32.5368L164.681 34.7193C164.494 34.8963 164.383 35.0415 164.346 35.155C164.309 35.2685 164.326 35.4171 164.395 35.6008L164.633 36.1424L164.364 36.398L161.995 33.9017L162.264 33.6461L162.792 33.9124C162.979 33.9981 163.133 34.029 163.255 34.0053C163.383 33.975 163.538 33.8746 163.717 33.7042L165.799 31.7282C166.248 31.3022 166.505 30.888 166.569 30.4856C166.633 30.0832 166.492 29.699 166.144 29.333C165.902 29.0775 165.6 28.8979 165.239 28.7942C164.892 28.6909 164.512 28.6641 164.1 28.714L161.407 31.2701C161.227 31.4405 161.119 31.5891 161.082 31.7161C161.052 31.8366 161.075 31.9921 161.151 32.1826L161.379 32.7138L161.11 32.9694Z" fill="#F6F1ED"/>
<path d="M147.548 22.7295C147.199 22.4987 146.955 22.2462 146.816 21.9722C146.678 21.6982 146.651 21.3841 146.737 21.0299C146.828 20.6677 147.036 20.2404 147.361 19.7479L149.643 16.2921L148.726 15.6861L149.064 15.1737L150.171 15.6482L152.04 14.5549L152.228 14.9185L151.244 16.408L153.079 17.6201L152.646 18.2755L150.811 17.0634L148.647 20.3404C148.295 20.8727 148.124 21.2959 148.133 21.6101C148.148 21.9163 148.314 22.1744 148.632 22.3842C148.791 22.4892 148.969 22.5729 149.168 22.6354C149.366 22.6979 149.555 22.7486 149.735 22.7875L149.578 23.2832C149.288 23.3082 148.951 23.274 148.568 23.1806C148.198 23.0845 147.858 22.9342 147.548 22.7295Z" fill="#F6F1ED"/>
<path d="M133.922 15.2272L130.656 13.7486L130.809 13.4104L131.418 13.4509C131.653 13.4632 131.822 13.4353 131.926 13.3674C132.043 13.2948 132.148 13.1544 132.242 12.9462L133.756 9.60289C133.878 9.33403 133.927 9.12122 133.904 8.96446C133.894 8.80295 133.801 8.66165 133.626 8.54056L133.192 8.21853L133.333 7.90631L135.546 7.93624L135.762 8.25386L135.185 9.52875C135.714 9.2144 136.244 9.02573 136.774 8.96273C137.317 8.89498 137.814 8.96321 138.265 9.16743C138.941 9.47375 139.372 9.94077 139.558 10.5685C139.757 11.1914 139.68 11.8932 139.326 12.6737L138.018 15.5618C137.924 15.7699 137.884 15.9398 137.897 16.0713C137.924 16.1981 138.014 16.3438 138.17 16.5082L138.602 16.939L138.449 17.2772L135.196 15.8045L135.35 15.4663L135.958 15.5068C136.163 15.516 136.318 15.4866 136.422 15.4187C136.538 15.346 136.645 15.2013 136.744 14.9845L137.928 12.3696C138.183 11.8059 138.252 11.3197 138.134 10.9109C138.016 10.5021 137.718 10.1897 137.241 9.97375C136.92 9.82844 136.564 9.77183 136.174 9.8039C135.783 9.83598 135.408 9.9484 135.049 10.1412L133.517 13.5235C133.419 13.7403 133.377 13.9145 133.39 14.0461C133.408 14.169 133.492 14.3064 133.643 14.4582L134.075 14.889L133.922 15.2272Z" fill="#F6F1ED"/>
<path d="M123.945 10.7232L120.469 9.73651L120.571 9.37932L121.179 9.32925C121.404 9.30402 121.567 9.25143 121.669 9.17149C121.771 9.09154 121.854 8.93709 121.919 8.70812L122.937 5.12253C123.02 4.82945 123.037 4.61169 122.989 4.46922C122.94 4.32676 122.825 4.20992 122.643 4.11868L122.166 3.86449L122.263 3.52104L124.554 3.29548L124.829 3.58141L123.265 9.09031C123.2 9.31927 123.186 9.49323 123.221 9.61217C123.266 9.73372 123.377 9.8643 123.555 10.0039L124.046 10.366L123.945 10.7232ZM124.452 2.03434C124.168 1.95374 123.957 1.78998 123.819 1.54305C123.693 1.28956 123.669 1.02544 123.747 0.750683C123.831 0.457608 123.994 0.246783 124.239 0.11821C124.492 -0.00776384 124.752 -0.0330519 125.017 0.0423455C125.283 0.117743 125.486 0.274327 125.626 0.512097C125.776 0.752467 125.809 1.01919 125.726 1.31226C125.645 1.59618 125.486 1.80831 125.248 1.94864C125.01 2.08897 124.745 2.11754 124.452 2.03434Z" fill="#F6F1ED"/>
<path d="M109.542 7.95379C108.844 7.85687 108.248 7.62021 107.752 7.2438C107.267 6.85927 106.916 6.37324 106.7 5.7857C106.485 5.18873 106.429 4.51776 106.533 3.7728C106.607 3.23529 106.76 2.75672 106.992 2.33708C107.234 1.90933 107.538 1.55269 107.904 1.26717C108.272 0.972219 108.681 0.764626 109.13 0.644391C109.579 0.524157 110.058 0.4994 110.568 0.570122C111.275 0.668346 111.866 0.909069 112.342 1.29229C112.828 1.66739 113.178 2.15342 113.393 2.75039C113.608 3.34736 113.664 4.01833 113.561 4.76329C113.461 5.47997 113.222 6.09554 112.843 6.61C112.465 7.11503 111.99 7.49118 111.417 7.73846C110.846 7.97631 110.221 8.04808 109.542 7.95379ZM109.634 7.28897C110.247 7.3741 110.77 7.1728 111.203 6.68505C111.636 6.19731 111.918 5.48666 112.047 4.55309C112.178 3.6101 112.102 2.84496 111.818 2.25768C111.536 1.66098 111.088 1.32006 110.475 1.23493C109.862 1.14981 109.334 1.35517 108.89 1.85103C108.457 2.33878 108.176 3.04943 108.046 3.983C107.917 4.91656 107.993 5.6817 108.275 6.2784C108.568 6.86699 109.021 7.20385 109.634 7.28897Z" fill="#F6F1ED"/>
<path d="M91.4348 11.3074L87.5314 11.5811L87.5055 11.2107L88.0603 10.957C88.2734 10.8658 88.4137 10.7557 88.481 10.6269C88.5585 10.507 88.5895 10.3378 88.5742 10.1193L88.0779 3.03919C88.0566 2.73528 87.9986 2.51984 87.9038 2.39287C87.809 2.2659 87.6605 2.19042 87.4584 2.16641L86.9233 2.08939L86.8984 1.73325L88.8604 0.722452L89.202 0.898924L89.2789 1.99585C89.6105 1.55267 89.9776 1.20722 90.3801 0.959494C90.782 0.702269 91.1919 0.55901 91.6098 0.529717C92.1891 0.489106 92.7123 0.600362 93.1793 0.863484C93.6463 1.12661 94.026 1.5056 94.3184 2.00048C94.6107 2.49535 94.7806 3.07993 94.8278 3.75423C94.8857 4.58049 94.7837 5.30343 94.5218 5.92305C94.2598 6.54268 93.8599 7.03358 93.3223 7.39577C92.7846 7.75795 92.1311 7.966 91.3618 8.01993C90.792 8.05987 90.2742 7.95778 89.8085 7.71365L89.9703 10.0215C89.985 10.2304 90.0434 10.3838 90.1457 10.4816C90.248 10.5794 90.4646 10.674 90.7955 10.7653L91.4088 10.937L91.4348 11.3074ZM91.4013 7.35863C91.8287 7.32867 92.1904 7.17925 92.4865 6.91035C92.7921 6.64079 93.0198 6.28125 93.1697 5.83173C93.3188 5.37271 93.3734 4.85829 93.3335 4.28846C93.2722 3.41472 93.0388 2.73916 92.6331 2.26177C92.2369 1.78372 91.7207 1.56699 91.0844 1.6116C90.771 1.63357 90.468 1.73593 90.1754 1.91869C89.8916 2.09128 89.6502 2.32294 89.451 2.61367L89.6897 6.01841C89.7393 6.45395 89.9207 6.79436 90.2337 7.03964C90.5468 7.28492 90.936 7.39125 91.4013 7.35863Z" fill="#F6F1ED"/>
<path d="M74.2731 14.4826L70.4999 15.5191L70.4016 15.161L70.8957 14.8032C71.0866 14.6717 71.2024 14.5363 71.2431 14.3967C71.2955 14.2639 71.2926 14.0919 71.2346 13.8807L69.3546 7.03672C69.2739 6.74295 69.1746 6.54315 69.0567 6.43732C68.9387 6.33149 68.7783 6.2867 68.5755 6.30293L68.0357 6.33273L67.9411 5.98846L69.6658 4.61131L70.0355 4.71709L70.3268 5.77743C70.5646 5.27766 70.8566 4.86672 71.2025 4.54461C71.5459 4.21332 71.9196 3.99219 72.3235 3.88123C72.8835 3.7274 73.4184 3.73352 73.928 3.89959C74.4377 4.06565 74.8845 4.36251 75.2686 4.79016C75.6526 5.21781 75.9342 5.75755 76.1132 6.40935C76.3326 7.20805 76.3749 7.93693 76.24 8.59599C76.1051 9.25506 75.8097 9.81505 75.3538 10.276C74.8979 10.7369 74.2981 11.0695 73.5545 11.2738C73.0037 11.4251 72.476 11.4269 71.9714 11.2792L72.5842 13.51C72.6396 13.712 72.7272 13.8508 72.8467 13.9266C72.9662 14.0024 73.1972 14.0525 73.5396 14.0769L74.1747 14.1246L74.2731 14.4826ZM73.4631 10.6176C73.8762 10.5041 74.2015 10.2864 74.4389 9.96453C74.6854 9.64009 74.8379 9.24277 74.8964 8.77256C74.9523 8.29316 74.9046 7.77805 74.7533 7.22723C74.5212 6.38263 74.1594 5.76623 73.6677 5.37802C73.1852 4.98729 72.6364 4.8764 72.0213 5.04536C71.7183 5.12859 71.4414 5.28858 71.1905 5.52534C70.9463 5.75041 70.7551 6.02506 70.6171 6.34929L71.5212 9.64046C71.6556 10.0577 71.9004 10.3558 72.2556 10.5347C72.6108 10.7135 73.0133 10.7412 73.4631 10.6176Z" fill="#F6F1ED"/>
<path d="M54.3486 18.1313L51.569 19.5649L51.3923 19.2222L51.7825 18.7639C51.9253 18.6045 52.0108 18.4587 52.0389 18.3263C52.0712 18.1812 52.075 17.981 52.0505 17.7258L51.1103 8.95543L51.9439 8.20408L58.8416 14.2875C58.975 14.4008 59.0847 14.4888 59.1706 14.5516C59.2606 14.6016 59.3504 14.6302 59.4399 14.6376C59.5379 14.6407 59.6614 14.6413 59.8104 14.6394L60.3655 14.5941L60.5423 14.9368L57.1789 16.6715L57.0021 16.3288L57.3359 15.9478C57.5038 15.7541 57.602 15.6124 57.6307 15.5226C57.6594 15.4328 57.6563 15.3541 57.6214 15.2864C57.5996 15.2441 57.5671 15.2019 57.524 15.1599C57.485 15.105 57.4289 15.0482 57.3558 14.9895L56.1673 13.9314L52.6262 15.7578L52.8051 17.2884C52.8149 17.3905 52.8288 17.4797 52.8468 17.5562C52.8604 17.6241 52.8781 17.6792 52.9 17.7215C52.9392 17.7977 53.008 17.8479 53.1062 17.8722C53.2129 17.8922 53.3917 17.8857 53.6425 17.8528L54.1718 17.7886L54.3486 18.1313ZM51.9757 10.2284L52.5397 14.9669L55.5604 13.4089L51.9757 10.2284Z" fill="#F6F1ED"/>
<path d="M36.1824 32.1965L33.5474 34.6685L33.2934 34.3977L33.5634 33.8506C33.6575 33.6448 33.6966 33.4777 33.6805 33.3492C33.6644 33.2207 33.5749 33.0697 33.412 32.8961L28.5267 27.6886C28.3248 27.4733 28.1502 27.3499 28.0031 27.3182C27.8559 27.2866 27.6964 27.3253 27.5245 27.4343L27.061 27.7125L26.807 27.4417L27.8025 25.372L28.1893 25.2834L32.3906 29.7618L32.8906 29.2928C33.0155 29.1756 33.1077 29.0304 33.1672 28.8571C33.2335 28.6774 33.2601 28.4762 33.247 28.2535L33.1789 26.9076C33.1767 26.7661 33.1669 26.6513 33.1495 26.5632C33.1321 26.475 33.1006 26.4067 33.055 26.3581C33.0159 26.3164 32.9625 26.3012 32.8948 26.3125C32.8271 26.3239 32.742 26.3514 32.6396 26.3953L32.1877 26.6234L31.9337 26.3526L34.1938 24.2324L34.4478 24.5031L34.1263 25.0789C34.0474 25.2313 33.9893 25.3641 33.952 25.4774C33.9082 25.5838 33.8839 25.711 33.8792 25.859C33.8679 26.0001 33.8647 26.2054 33.8696 26.475L33.9314 28.336L37.4994 29.2379C37.7268 29.2856 37.9146 29.3118 38.0626 29.3165C38.2041 29.3143 38.3432 29.2817 38.48 29.2187L39.1258 28.9261L39.3798 29.1969L37.7447 30.7309L33.5268 29.6162L32.8499 30.2513L34.4327 31.9386C34.5956 32.1122 34.7371 32.2143 34.8574 32.2451C34.9846 32.2694 35.1538 32.2411 35.3652 32.1603L35.9284 31.9257L36.1824 32.1965Z" fill="#F6F1ED"/>
<path d="M25.4696 43.6899C25.0494 44.2554 24.5552 44.6651 23.9871 44.919C23.4169 45.1596 22.8222 45.2337 22.2029 45.1412C21.5761 45.0431 20.9607 44.7698 20.357 44.3212C19.9214 43.9976 19.5752 43.6336 19.3182 43.2291C19.0593 42.8114 18.8926 42.3732 18.8182 41.9147C18.7361 41.4504 18.7502 40.9924 18.8606 40.5407C18.9709 40.0889 19.1793 39.6567 19.486 39.244C19.9118 38.6709 20.407 38.2678 20.9714 38.0349C21.534 37.7886 22.1287 37.7146 22.7556 37.8127C23.3824 37.9108 23.9978 38.1841 24.6015 38.6327C25.1823 39.0642 25.6072 39.5697 25.8764 40.1493C26.138 40.7232 26.2397 41.3206 26.1815 41.9416C26.1157 42.5569 25.8784 43.1397 25.4696 43.6899ZM24.9308 43.2896C25.2999 42.7929 25.3745 42.2375 25.1547 41.6235C24.9349 41.0094 24.4467 40.4213 23.6901 39.8592C22.9259 39.2914 22.2182 38.9909 21.5668 38.9576C20.9078 38.9187 20.3938 39.1476 20.0247 39.6443C19.6556 40.141 19.582 40.7031 19.8038 41.3305C20.0236 41.9445 20.5118 42.5326 21.2684 43.0947C22.0249 43.6568 22.7327 43.9574 23.3917 43.9963C24.0487 44.0219 24.5618 43.7863 24.9308 43.2896Z" fill="#F6F1ED"/>
<path d="M16.8535 59.3875C16.5529 60.0246 16.149 60.5236 15.6419 60.8843C15.1302 61.2324 14.5617 61.4221 13.9364 61.4533C13.3024 61.4805 12.6454 61.3336 11.9652 61.0127C11.4744 60.7811 11.0633 60.4923 10.7317 60.1464C10.3957 59.7877 10.146 59.391 9.98281 58.956C9.81099 58.517 9.7347 58.0652 9.75395 57.6005C9.77319 57.1359 9.89252 56.6711 10.1119 56.2062C10.4166 55.5604 10.8228 55.0678 11.3304 54.7283C11.8334 54.3762 12.4019 54.1865 13.0359 54.1593C13.6698 54.1322 14.3269 54.279 15.0071 54.6C15.6614 54.9088 16.1776 55.3208 16.5556 55.8361C16.9249 56.3472 17.1422 56.913 17.2074 57.5333C17.264 58.1495 17.1461 58.7676 16.8535 59.3875ZM16.2465 59.1011C16.5106 58.5414 16.4745 57.9822 16.1381 57.4234C15.8017 56.8647 15.2073 56.3842 14.355 55.9819C13.494 55.5756 12.7409 55.4203 12.0957 55.5159C11.4419 55.6074 10.983 55.933 10.7189 56.4926C10.4548 57.0523 10.4932 57.6178 10.8342 58.1892C11.1705 58.748 11.7649 59.2285 12.6173 59.6308C13.4697 60.033 14.2228 60.1883 14.8765 60.0968C15.5258 59.9926 15.9824 59.6607 16.2465 59.1011Z" fill="#F6F1ED"/>
<path d="M10.4938 76.9087L9.51816 81.0217L9.14299 80.9327L9.04922 80.338C9.00225 80.0823 8.93552 79.9099 8.849 79.8209C8.76468 79.7226 8.62063 79.6493 8.41683 79.6009L1.62212 77.9891C1.41832 77.9408 1.25669 77.9416 1.13721 77.9915C1.01067 78.03 0.87361 78.154 0.72604 78.3636L0.375168 78.8528L0 78.7638L0.988844 74.5953C1.23715 73.5485 1.63676 72.792 2.18765 72.3259C2.74075 71.8504 3.40173 71.7039 4.17059 71.8863C4.5226 71.9698 4.82704 72.13 5.08392 72.3671C5.33373 72.5927 5.5311 72.8744 5.67604 73.2121C5.81391 73.5383 5.88412 73.9023 5.88666 74.3041C6.17628 73.6194 6.5836 73.1191 7.1086 72.8034C7.62434 72.4854 8.1879 72.3989 8.79928 72.5439C9.61446 72.7373 10.171 73.2167 10.4689 73.9821C10.7668 74.7474 10.7751 75.723 10.4938 76.9087ZM5.59484 77.3904L9.416 78.2969L9.74561 76.9073C9.9214 76.1663 9.892 75.5478 9.6574 75.0518C9.41574 74.5444 8.99848 74.2203 8.40562 74.0797C7.8035 73.9369 7.28625 74.0343 6.85389 74.3721C6.41226 74.7076 6.10025 75.2598 5.91786 76.0287L5.59484 77.3904ZM1.31514 76.3752L4.88619 77.2223L5.15977 76.069C5.31359 75.4206 5.26637 74.8565 5.01811 74.3769C4.76279 73.8858 4.36649 73.5766 3.82921 73.4491C3.28267 73.3195 2.81394 73.4186 2.42302 73.7466C2.02504 74.0632 1.74144 74.5781 1.57224 75.2914L1.31514 76.3752Z" fill="#F6F1ED"/>
<path d="M4.69016 97.9675C4.69267 98.4816 4.52816 98.9108 4.19662 99.2552C3.86504 99.59 3.44696 99.7587 2.94238 99.7611C2.42828 99.7636 2.00381 99.5991 1.66897 99.2675C1.33408 98.9264 1.16538 98.4988 1.16286 97.9847C1.1604 97.4801 1.32495 97.0604 1.65654 96.7256C1.98812 96.3907 2.41096 96.2221 2.92506 96.2196C3.42964 96.2171 3.84935 96.3816 4.1842 96.7132C4.51904 97.0448 4.68769 97.4629 4.69016 97.9675Z" fill="#F6F1ED"/>
<path d="M9.79611 115.301C9.88056 115.712 9.87505 116.063 9.77959 116.354C9.68413 116.646 9.48103 116.887 9.17028 117.078C8.85021 117.27 8.40109 117.425 7.82294 117.544L3.76656 118.379L3.98824 119.456L3.38678 119.58L2.93802 118.462L0.842823 117.917L0.966674 117.527L2.71511 117.167L2.27175 115.013L3.04107 114.854L3.48443 117.009L7.33099 116.217C7.95577 116.088 8.37581 115.909 8.59112 115.68C8.7971 115.453 8.86171 115.153 8.78493 114.78C8.74655 114.594 8.67923 114.408 8.58297 114.224C8.48672 114.04 8.38868 113.87 8.28885 113.716L8.74963 113.475C8.97287 113.663 9.18719 113.925 9.39259 114.262C9.58675 114.591 9.72126 114.938 9.79611 115.301Z" fill="#F6F1ED"/>
<path d="M13.7998 130.162L15.0672 133.515L14.7199 133.646L14.3175 133.188C14.1599 133.013 14.0204 132.913 13.8989 132.888C13.7651 132.857 13.5913 132.882 13.3776 132.963L9.9445 134.261C9.66843 134.365 9.4832 134.481 9.38882 134.608C9.28217 134.73 9.24806 134.895 9.28649 135.105L9.36645 135.639L9.04585 135.76L7.50064 134.177L7.57152 133.799L8.88063 133.304C8.28409 133.153 7.7759 132.912 7.35606 132.582C6.92395 132.247 6.62038 131.848 6.44534 131.385C6.18277 130.69 6.20729 130.055 6.5189 129.479C6.81824 128.898 7.36866 128.456 8.17015 128.153L11.1357 127.032C11.3494 126.951 11.4979 126.859 11.5812 126.757C11.6523 126.648 11.6908 126.481 11.6969 126.255L11.6953 125.645L12.0426 125.513L13.305 128.853L12.9577 128.984L12.5553 128.526C12.4167 128.374 12.2867 128.286 12.1652 128.261C12.0314 128.23 11.8532 128.257 11.6305 128.341L8.94551 129.356C8.36665 129.575 7.97464 129.87 7.76947 130.243C7.5643 130.616 7.55429 131.047 7.73943 131.537C7.86397 131.866 8.0759 132.158 8.37519 132.411C8.67448 132.664 9.01928 132.849 9.40959 132.967L12.8827 131.654C13.1054 131.57 13.2584 131.476 13.3417 131.373C13.4161 131.274 13.4535 131.117 13.4541 130.903L13.4525 130.293L13.7998 130.162Z" fill="#F6F1ED"/>
<path d="M22.0951 144.648C22.6459 145.527 22.8194 146.396 22.6154 147.254C22.4033 148.117 21.7889 148.867 20.7723 149.504C20.1753 149.878 19.5629 150.093 18.9353 150.149C18.2995 150.21 17.7066 150.115 17.1563 149.864C16.6061 149.614 16.1591 149.214 15.8155 148.665C15.4971 148.157 15.324 147.647 15.2962 147.137C15.2634 146.618 15.378 146.12 15.6399 145.641C15.9018 145.162 16.3222 144.731 16.9011 144.345L17.1673 144.179L19.7751 148.342L19.9325 148.243C20.707 147.758 21.1838 147.201 21.3628 146.572C21.5287 145.94 21.412 145.306 21.0128 144.668C20.8056 144.338 20.5727 144.073 20.3141 143.876C20.0505 143.67 19.7582 143.499 19.4372 143.364L19.6304 142.838C20.126 142.966 20.5849 143.178 21.007 143.476C21.4292 143.773 21.7918 144.163 22.0951 144.648ZM19.1957 148.654L17.3324 145.76C16.7939 146.12 16.4375 146.529 16.2634 146.986C16.0761 147.44 16.1114 147.873 16.3691 148.285C16.6319 148.704 17.0121 148.944 17.5097 149.003C17.9941 149.059 18.5561 148.943 19.1957 148.654Z" fill="#F6F1ED"/>
<path d="M36.8851 163.267L39.3944 165.766L39.1323 166.029L38.5764 165.778C38.3676 165.69 38.1992 165.657 38.0713 165.678C37.9368 165.705 37.7888 165.799 37.6276 165.961L35.0376 168.562C34.8226 168.777 34.6984 168.963 34.6651 169.118C34.6317 169.273 34.6724 169.434 34.7872 169.602L35.081 170.056L34.8391 170.299L32.7775 169.495L32.6859 169.122L33.6735 168.13C33.3236 168.198 32.9769 168.229 32.6336 168.223C32.2902 168.217 31.9603 168.157 31.6436 168.043C31.3135 167.929 31.0203 167.745 30.764 167.49C30.366 167.093 30.1329 166.673 30.0647 166.229C29.9898 165.778 30.0629 165.327 30.2842 164.875C29.9679 164.936 29.6414 164.961 29.3048 164.948C28.9682 164.935 28.6382 164.868 28.3148 164.748C27.9914 164.627 27.705 164.443 27.4554 164.194C26.9292 163.67 26.6891 163.088 26.7349 162.449C26.7808 161.809 27.1094 161.182 27.7208 160.568L29.9581 158.322C30.1261 158.154 30.2234 158.009 30.2501 157.887C30.27 157.759 30.236 157.591 30.1481 157.383L29.8945 156.828L30.1566 156.565L32.676 159.074L32.4139 159.337L31.8782 159.086C31.6896 159.005 31.5347 158.979 31.4136 159.006C31.279 159.033 31.1244 159.134 30.9497 159.31L28.924 161.344C28.0304 162.241 27.9412 163.045 28.6562 163.758C28.8788 163.979 29.1685 164.127 29.5255 164.2C29.8757 164.28 30.2729 164.286 30.7171 164.218C30.7574 164.164 30.8077 164.107 30.8682 164.046C30.9152 163.985 30.969 163.925 31.0294 163.864L33.2667 161.618C33.4481 161.436 33.5555 161.287 33.589 161.173C33.6224 161.058 33.6019 160.91 33.5275 160.729L33.274 160.194L33.536 159.931L35.9745 162.36L35.7124 162.623L35.1767 162.371C34.9881 162.291 34.8332 162.264 34.7121 162.291C34.5842 162.325 34.433 162.43 34.2583 162.605L32.2326 164.639C31.7959 165.077 31.551 165.499 31.498 165.903C31.4449 166.307 31.5972 166.687 31.9547 167.043C32.2042 167.291 32.5109 167.463 32.8746 167.556C33.2249 167.65 33.6053 167.666 34.0158 167.604L36.636 164.974C36.8107 164.798 36.9148 164.647 36.9482 164.519C36.9748 164.397 36.9476 164.243 36.8665 164.054L36.6231 163.53L36.8851 163.267Z" fill="#F6F1ED"/>
<path d="M50.4343 173.552C50.7902 173.773 51.0412 174.018 51.1873 174.288C51.3334 174.558 51.3687 174.872 51.293 175.228C51.2124 175.593 51.0164 176.026 50.705 176.527L48.5206 180.046L49.4548 180.626L49.1309 181.147L48.0109 180.704L46.1736 181.849L45.9758 181.491L46.9173 179.975L45.0489 178.815L45.4632 178.147L47.3316 179.307L49.4031 175.971C49.7395 175.429 49.8987 175.001 49.8806 174.687C49.8575 174.382 49.6842 174.128 49.3606 173.927C49.1989 173.827 49.018 173.748 48.818 173.691C48.618 173.635 48.4276 173.589 48.2469 173.555L48.3892 173.055C48.6787 173.022 49.0164 173.047 49.4021 173.13C49.7748 173.215 50.1188 173.356 50.4343 173.552Z" fill="#F6F1ED"/>
<path d="M64.0469 180.23L67.3524 181.617L67.2088 181.959L66.5992 181.936C66.3641 181.93 66.1956 181.963 66.0937 182.033C65.9792 182.109 65.8779 182.253 65.7895 182.463L64.37 185.848C64.2559 186.12 64.2126 186.334 64.24 186.49C64.255 186.651 64.3518 186.79 64.5302 186.906L64.9733 187.216L64.8407 187.532L62.6282 187.564L62.4026 187.253L62.9439 185.962C62.4239 186.291 61.8998 186.495 61.3716 186.573C60.8309 186.655 60.3323 186.601 59.8758 186.41C59.191 186.123 58.7468 185.668 58.5432 185.046C58.3271 184.428 58.3847 183.725 58.7161 182.935L59.9422 180.011C60.0306 179.8 60.0662 179.629 60.0489 179.498C60.0192 179.372 59.9243 179.229 59.7643 179.069L59.3203 178.651L59.4639 178.308L62.7563 179.689L62.6127 180.032L62.0031 180.008C61.798 180.005 61.6445 180.038 61.5426 180.109C61.4281 180.185 61.3249 180.333 61.2329 180.552L60.1227 183.199C59.8834 183.77 59.8284 184.258 59.9578 184.663C60.0873 185.069 60.3934 185.372 60.8763 185.575C61.2011 185.711 61.5584 185.758 61.9481 185.715C62.3378 185.672 62.7094 185.549 63.0629 185.346L64.4989 181.922C64.5909 181.703 64.6283 181.527 64.611 181.396C64.5901 181.274 64.5022 181.139 64.3472 180.991L63.9033 180.573L64.0469 180.23Z" fill="#F6F1ED"/>
<path d="M74.0254 183.888L77.5274 184.776L77.4361 185.136L76.8297 185.203C76.6056 185.235 76.4438 185.292 76.3442 185.375C76.2446 185.457 76.1655 185.614 76.107 185.845L75.1903 189.458C75.1153 189.753 75.1042 189.971 75.1568 190.112C75.2094 190.253 75.3279 190.367 75.5123 190.453L75.9964 190.694L75.9086 191.04L73.625 191.329L73.342 191.051L74.7505 185.501C74.809 185.27 74.8189 185.096 74.78 184.978C74.732 184.858 74.617 184.73 74.435 184.596L73.934 184.247L74.0254 183.888ZM73.7626 192.587C74.0487 192.66 74.264 192.818 74.4086 193.061C74.5417 193.31 74.5731 193.574 74.5028 193.851C74.4279 194.146 74.2701 194.361 74.0295 194.497C73.7796 194.63 73.5209 194.662 73.2533 194.594C72.9857 194.526 72.7784 194.376 72.6314 194.142C72.4753 193.906 72.4346 193.64 72.5096 193.345C72.5822 193.059 72.7353 192.842 72.9691 192.695C73.2028 192.548 73.4673 192.512 73.7626 192.587Z" fill="#F6F1ED"/>
<path d="M88.4314 186.704C89.1317 186.781 89.7348 187.001 90.2408 187.363C90.7363 187.734 91.1004 188.21 91.3332 188.791C91.5649 189.382 91.6395 190.051 91.557 190.798C91.4975 191.338 91.358 191.82 91.1386 192.246C90.9087 192.681 90.6146 193.046 90.2563 193.342C89.897 193.647 89.4945 193.866 89.0488 193.999C88.6031 194.131 88.1248 194.17 87.6138 194.113C86.904 194.035 86.3062 193.811 85.8202 193.441C85.3237 193.08 84.9595 192.604 84.7278 192.013C84.496 191.422 84.4214 190.753 84.5039 190.006C84.5833 189.287 84.8052 188.664 85.1696 188.14C85.533 187.624 85.9974 187.235 86.5628 186.972C87.1272 186.718 87.7501 186.628 88.4314 186.704ZM88.3578 187.371C87.7427 187.303 87.2256 187.519 86.8065 188.019C86.3874 188.518 86.1261 189.236 86.0227 190.173C85.9183 191.12 86.0161 191.882 86.3162 192.461C86.6152 193.05 87.0723 193.378 87.6874 193.446C88.3025 193.514 88.8249 193.294 89.2545 192.786C89.6736 192.286 89.9348 191.568 90.0382 190.631C90.1416 189.694 90.0438 188.931 89.7448 188.343C89.4352 187.763 88.9729 187.439 88.3578 187.371Z" fill="#F6F1ED"/>
<path d="M106.469 183.42L110.363 183.036L110.4 183.405L109.852 183.675C109.642 183.772 109.505 183.886 109.441 184.017C109.367 184.139 109.341 184.309 109.362 184.527L110.058 191.59C110.088 191.893 110.152 192.107 110.25 192.231C110.348 192.355 110.499 192.427 110.702 192.445L111.239 192.507L111.274 192.862L109.341 193.928L108.995 193.761L108.887 192.667C108.568 193.119 108.211 193.475 107.815 193.734C107.421 194.002 107.015 194.157 106.598 194.198C106.02 194.255 105.494 194.158 105.02 193.909C104.546 193.659 104.155 193.291 103.849 192.804C103.543 192.318 103.357 191.738 103.29 191.065C103.209 190.241 103.291 189.516 103.535 188.889C103.78 188.262 104.165 187.76 104.693 187.383C105.22 187.006 105.867 186.779 106.635 186.704C107.203 186.648 107.724 186.735 108.196 186.966L107.969 184.664C107.949 184.455 107.886 184.304 107.781 184.209C107.676 184.114 107.457 184.025 107.123 183.943L106.505 183.789L106.469 183.42ZM106.614 187.366C106.188 187.408 105.83 187.567 105.542 187.845C105.244 188.123 105.026 188.488 104.889 188.942C104.753 189.405 104.713 189.921 104.769 190.489C104.855 191.361 105.107 192.03 105.526 192.495C105.936 192.962 106.458 193.164 107.093 193.102C107.405 193.071 107.705 192.96 107.993 192.769C108.272 192.589 108.506 192.35 108.697 192.054L108.363 188.657C108.301 188.223 108.11 187.888 107.79 187.652C107.47 187.415 107.078 187.32 106.614 187.366Z" fill="#F6F1ED"/>
<path d="M123.668 179.421L127.41 178.279L127.519 178.634L127.035 179.005C126.848 179.142 126.736 179.281 126.699 179.422C126.651 179.556 126.658 179.728 126.722 179.937L128.795 186.725C128.884 187.017 128.988 187.214 129.109 187.316C129.23 187.419 129.392 187.459 129.594 187.437L130.133 187.392L130.237 187.733L128.552 189.159L128.179 189.063L127.858 188.012C127.635 188.518 127.354 188.937 127.018 189.269C126.684 189.609 126.316 189.841 125.916 189.963C125.36 190.133 124.826 190.142 124.311 189.99C123.797 189.839 123.342 189.554 122.946 189.138C122.55 188.721 122.254 188.19 122.056 187.543C121.815 186.751 121.752 186.024 121.868 185.361C121.984 184.698 122.264 184.13 122.706 183.657C123.149 183.183 123.739 182.834 124.477 182.608C125.023 182.442 125.551 182.425 126.059 182.558L125.384 180.346C125.323 180.145 125.231 180.009 125.11 179.937C124.988 179.864 124.756 179.821 124.413 179.806L123.776 179.776L123.668 179.421ZM124.587 183.262C124.177 183.387 123.858 183.614 123.63 183.942C123.392 184.273 123.251 184.675 123.206 185.147C123.164 185.627 123.226 186.141 123.393 186.687C123.648 187.525 124.028 188.131 124.53 188.505C125.023 188.882 125.575 188.977 126.185 188.791C126.486 188.699 126.758 188.532 127.002 188.288C127.24 188.056 127.423 187.776 127.552 187.448L126.555 184.184C126.409 183.77 126.156 183.479 125.796 183.311C125.436 183.142 125.033 183.126 124.587 183.262Z" fill="#F6F1ED"/>
<path d="M142.824 174.869L145.562 173.358L145.749 173.696L145.372 174.165C145.233 174.328 145.152 174.476 145.128 174.609C145.099 174.755 145.101 174.956 145.133 175.21L146.319 183.951L145.507 184.725L138.441 178.838C138.305 178.728 138.192 178.643 138.105 178.583C138.013 178.536 137.923 178.509 137.833 178.505C137.735 178.504 137.612 178.507 137.463 178.513L136.909 178.574L136.723 178.237L140.036 176.408L140.222 176.746L139.9 177.136C139.737 177.334 139.643 177.479 139.617 177.569C139.591 177.66 139.596 177.738 139.633 177.805C139.656 177.847 139.689 177.888 139.734 177.929C139.774 177.983 139.832 178.038 139.907 178.094L141.124 179.119L144.613 177.193L144.391 175.668C144.378 175.567 144.362 175.478 144.342 175.402C144.326 175.334 144.307 175.28 144.284 175.238C144.242 175.163 144.172 175.115 144.073 175.093C143.966 175.076 143.788 175.088 143.538 175.128L143.011 175.207L142.824 174.869ZM145.418 182.702L144.721 177.982L141.746 179.624L145.418 182.702Z" fill="#F6F1ED"/>
<path d="M161.073 160.869L163.637 158.324L163.899 158.588L163.644 159.142C163.556 159.351 163.522 159.519 163.541 159.647C163.561 159.775 163.655 159.923 163.822 160.092L168.852 165.16C169.06 165.37 169.238 165.488 169.386 165.516C169.534 165.543 169.692 165.5 169.861 165.386L170.317 165.095L170.578 165.359L169.641 167.456L169.257 167.555L164.931 163.196L164.445 163.679C164.323 163.8 164.235 163.948 164.181 164.123C164.119 164.304 164.098 164.506 164.118 164.728L164.224 166.072C164.23 166.213 164.243 166.328 164.263 166.415C164.283 166.503 164.316 166.57 164.363 166.618C164.403 166.658 164.457 166.672 164.524 166.659C164.592 166.645 164.676 166.615 164.777 166.569L165.222 166.328L165.484 166.592L163.284 168.774L163.023 168.511L163.328 167.926C163.403 167.772 163.457 167.637 163.491 167.523C163.532 167.415 163.553 167.288 163.553 167.14C163.56 166.998 163.558 166.793 163.545 166.524L163.431 164.665L159.839 163.864C159.611 163.822 159.422 163.802 159.274 163.801C159.133 163.807 158.995 163.844 158.86 163.911L158.222 164.221L157.961 163.958L159.552 162.378L163.8 163.374L164.459 162.72L162.829 161.078C162.661 160.909 162.517 160.811 162.396 160.783C162.268 160.763 162.1 160.796 161.891 160.883L161.334 161.133L161.073 160.869Z" fill="#F6F1ED"/>
<path d="M172.688 146.936C173.08 146.351 173.554 145.918 174.11 145.637C174.668 145.37 175.258 145.267 175.881 145.33C176.512 145.398 177.14 145.641 177.764 146.06C178.215 146.363 178.578 146.71 178.854 147.101C179.133 147.506 179.32 147.936 179.416 148.39C179.521 148.85 179.528 149.308 179.44 149.765C179.351 150.221 179.164 150.663 178.877 151.09C178.479 151.683 178.004 152.109 177.451 152.369C176.901 152.642 176.311 152.744 175.68 152.676C175.049 152.608 174.421 152.365 173.797 151.946C173.196 151.542 172.747 151.058 172.451 150.492C172.162 149.931 172.032 149.339 172.06 148.716C172.096 148.098 172.306 147.505 172.688 146.936ZM173.245 147.31C172.9 147.824 172.852 148.382 173.101 148.985C173.35 149.588 173.866 150.152 174.648 150.677C175.439 151.207 176.16 151.474 176.812 151.476C177.473 151.483 177.975 151.23 178.32 150.716C178.665 150.202 178.711 149.637 178.46 149.021C178.211 148.418 177.695 147.854 176.913 147.329C176.13 146.804 175.409 146.538 174.748 146.53C174.091 146.536 173.59 146.796 173.245 147.31Z" fill="#F6F1ED"/>
<path d="M180.516 132.818C180.798 132.173 181.188 131.662 181.685 131.288C182.187 130.925 182.75 130.72 183.374 130.671C184.007 130.626 184.668 130.754 185.357 131.056C185.854 131.274 186.273 131.551 186.614 131.887C186.96 132.236 187.221 132.626 187.396 133.056C187.58 133.49 187.669 133.94 187.663 134.405C187.657 134.87 187.55 135.338 187.344 135.808C187.058 136.463 186.666 136.966 186.168 137.32C185.675 137.686 185.112 137.892 184.479 137.937C183.846 137.982 183.185 137.853 182.496 137.552C181.833 137.261 181.306 136.864 180.913 136.36C180.53 135.859 180.297 135.3 180.214 134.681C180.14 134.067 180.241 133.446 180.516 132.818ZM181.131 133.087C180.882 133.654 180.934 134.212 181.286 134.761C181.638 135.31 182.246 135.774 183.109 136.152C183.981 136.534 184.738 136.668 185.381 136.554C186.031 136.444 186.481 136.106 186.729 135.539C186.978 134.972 186.923 134.408 186.566 133.846C186.215 133.297 185.607 132.834 184.744 132.456C183.88 132.078 183.123 131.943 182.472 132.053C181.826 132.176 181.379 132.52 181.131 133.087Z" fill="#F6F1ED"/>
<path d="M186.067 115.292L186.927 111.154L187.305 111.232L187.415 111.824C187.469 112.078 187.541 112.249 187.63 112.335C187.717 112.431 187.863 112.5 188.068 112.543L194.905 113.963C195.11 114.006 195.272 114 195.39 113.947C195.515 113.905 195.649 113.777 195.79 113.563L196.127 113.065L196.505 113.143L195.634 117.338C195.415 118.391 195.037 119.158 194.499 119.64C193.96 120.131 193.303 120.296 192.529 120.135C192.175 120.062 191.866 119.91 191.603 119.68C191.347 119.462 191.142 119.186 190.987 118.852C190.84 118.53 190.76 118.168 190.746 117.766C190.476 118.459 190.083 118.971 189.567 119.301C189.06 119.633 188.499 119.736 187.884 119.608C187.064 119.437 186.494 118.974 186.175 118.217C185.855 117.46 185.82 116.485 186.067 115.292ZM190.951 114.673L187.106 113.874L186.815 115.273C186.66 116.018 186.707 116.636 186.956 117.125C187.212 117.625 187.638 117.938 188.234 118.062C188.84 118.187 189.355 118.075 189.777 117.726C190.209 117.378 190.506 116.817 190.666 116.043L190.951 114.673ZM195.257 115.568L191.664 114.821L191.423 115.982C191.287 116.634 191.35 117.197 191.612 117.669C191.881 118.153 192.286 118.451 192.827 118.563C193.377 118.678 193.842 118.565 194.224 118.226C194.613 117.899 194.882 117.376 195.031 116.658L195.257 115.568Z" fill="#F6F1ED"/>
</svg>
