<svg width="1921" height="736" viewBox="0 0 1921 736" fill="none" xmlns="http://www.w3.org/2000/svg">
<g opacity="0.2">
<path d="M0.875 550.526H301.453V353.272H339.256V294.966H423.831V600.41H455.226V465.31L546.209 523.615V704.774H522.061V569.747H571.838V252.909L628.542 309.613V458.262H672.43V644.961H729.775V396.753L797.371 341.651L841.261 398.034V510.802H927.438V542.837H895.401V408.286L965.24 338.447V596.36H999.839V198.103H1038.92V79.9759H1120.19V649.82H1094.54V454.738H1155.53V339.088L1197.82 296.801V1H1265.1V449.292H1332.37V535.474H1301.62V209.169L1366.01 144.777V620.66H1398.37V426.867L1465.96 494.463V550.526H1495.76V470.436H1527.79V341.205H1582.25V576.721H1551.5V449.452H1668.11V365.505L1716.49 317.131V550.526H1920.87" stroke="#5C7069" stroke-miterlimit="10" stroke-linejoin="round"/>
<path d="M301.454 353.271L249.348 405.377V550.526" stroke="#5C7069" stroke-miterlimit="10" stroke-linejoin="round"/>
<path d="M339.257 294.966L313.059 321.164V353.272" stroke="#5C7069" stroke-miterlimit="10" stroke-linejoin="round"/>
<path d="M455.228 465.311L391.855 528.683V735.182" stroke="#5C7069" stroke-miterlimit="10" stroke-linecap="round"/>
<path d="M571.836 252.909L522.059 302.686V508.141" stroke="#5C7069" stroke-miterlimit="10" stroke-linecap="round"/>
<path d="M628.543 458.263V600.246" stroke="#5C7069" stroke-miterlimit="10" stroke-linecap="round"/>
<path d="M797.371 341.651V610.025" stroke="#5C7069" stroke-miterlimit="10" stroke-linecap="round"/>
<path d="M729.777 644.961V735.181" stroke="#5C7069" stroke-miterlimit="10" stroke-linecap="round"/>
<path d="M628.543 478.729H672.432" stroke="#5C7069" stroke-miterlimit="10" stroke-linecap="round"/>
<path d="M628.543 500.167H672.432" stroke="#5C7069" stroke-miterlimit="10" stroke-linecap="round"/>
<path d="M628.543 521.607H672.432" stroke="#5C7069" stroke-miterlimit="10" stroke-linecap="round"/>
<path d="M628.543 543.046H672.432" stroke="#5C7069" stroke-miterlimit="10" stroke-linecap="round"/>
<path d="M628.543 564.485H672.432" stroke="#5C7069" stroke-miterlimit="10" stroke-linecap="round"/>
<path d="M628.543 585.925H672.432" stroke="#5C7069" stroke-miterlimit="10" stroke-linecap="round"/>
<path d="M965.242 338.447C965.242 338.447 990.723 363.928 998.35 371.556" stroke="#5C7069" stroke-miterlimit="10" stroke-linecap="round"/>
<path d="M1120.19 79.9756L1164.06 123.852V330.558" stroke="#5C7069" stroke-miterlimit="10" stroke-linejoin="round"/>
<path d="M1366.01 144.776L1422.87 201.639V451.372" stroke="#5C7069" stroke-miterlimit="10" stroke-linecap="round"/>
<path d="M1527.79 341.206L1482.85 386.148V588.582" stroke="#5C7069" stroke-miterlimit="10" stroke-linecap="round"/>
<path d="M1527.79 470.437V518.249" stroke="#5C7069" stroke-miterlimit="10" stroke-linecap="round"/>
<path d="M1668.11 449.452V533.282" stroke="#5C7069" stroke-miterlimit="10" stroke-linecap="round"/>
<path d="M1716.49 317.131L1760.64 361.286V550.526" stroke="#5C7069" stroke-miterlimit="10" stroke-linecap="round"/>
<path d="M1265.1 1L1305.79 41.6951V200.913" stroke="#5C7069" stroke-miterlimit="10" stroke-linecap="round"/>
<path d="M895.402 542.838V656.356" stroke="#5C7069" stroke-miterlimit="10" stroke-linecap="round"/>
<path d="M423.832 294.966L468.682 339.817V473.933" stroke="#5C7069" stroke-miterlimit="10" stroke-linecap="round"/>
<path d="M1038.93 79.9756L948.852 170.05V353.272" stroke="#5C7069" stroke-miterlimit="10" stroke-linecap="round"/>
<path d="M1038.93 198.104V615.627" stroke="#5C7069" stroke-miterlimit="10" stroke-linecap="round"/>
<path d="M1038.93 100.956H1120.19" stroke="#5C7069" stroke-miterlimit="10" stroke-linecap="round"/>
<path d="M1038.93 125.547H1120.19" stroke="#5C7069" stroke-miterlimit="10" stroke-linecap="round"/>
<path d="M1038.93 150.137H1120.19" stroke="#5C7069" stroke-miterlimit="10" stroke-linecap="round"/>
<path d="M1038.93 174.728H1120.19" stroke="#5C7069" stroke-miterlimit="10" stroke-linecap="round"/>
<path d="M1038.93 199.317H1120.19" stroke="#5C7069" stroke-miterlimit="10" stroke-linecap="round"/>
<path d="M1038.93 223.908H1120.19" stroke="#5C7069" stroke-miterlimit="10" stroke-linecap="round"/>
<path d="M1038.93 248.499H1120.19" stroke="#5C7069" stroke-miterlimit="10" stroke-linecap="round"/>
<path d="M1038.93 273.089H1120.19" stroke="#5C7069" stroke-miterlimit="10" stroke-linecap="round"/>
<path d="M1038.93 297.68H1120.19" stroke="#5C7069" stroke-miterlimit="10" stroke-linecap="round"/>
<path d="M1197.82 296.801V564.486" stroke="#5C7069" stroke-miterlimit="10" stroke-linecap="round"/>
<path d="M1398.37 426.867C1398.37 426.867 1378.18 447.059 1368.38 456.853" stroke="#5C7069" stroke-miterlimit="10" stroke-linecap="round"/>
<path d="M1684.89 348.72V547.368" stroke="#5C7069" stroke-miterlimit="10" stroke-linecap="round"/>
<path d="M1702.54 331.319V529.968" stroke="#5C7069" stroke-miterlimit="10" stroke-linecap="round"/>
<path d="M1231.07 1V448.045" stroke="#5C7069" stroke-miterlimit="10" stroke-linecap="round"/>
<path d="M1197.82 263.362H1265.1" stroke="#5C7069" stroke-miterlimit="10" stroke-linejoin="round"/>
<path d="M999.838 198.104L981.793 223.909V353.272" stroke="#5C7069" stroke-miterlimit="10" stroke-linecap="round"/>
<path d="M841.262 510.802V550.526" stroke="#5C7069" stroke-miterlimit="10" stroke-linecap="round"/>
<path d="M672.43 458.263L713.451 499.283V644.961" stroke="#5C7069" stroke-miterlimit="10" stroke-linecap="round"/>
<path d="M339.258 353.271V433.828" stroke="#5C7069" stroke-miterlimit="10" stroke-linecap="round"/>
</g>
</svg>
